ISO-10303-21;
HEADER;
/* Generated by software containing ST-Developer
 * from STEP Tools, Inc. (www.steptools.com) 
 */

FILE_DESCRIPTION(
/* description */ (''),
/* implementation_level */ '2;1');

FILE_NAME(
/* name */ 'Phoenix_v6_OnlyEngine.step',
/* time_stamp */ '2025-06-11T14:38:02-04:00',
/* author */ (''),
/* organization */ (''),
/* preprocessor_version */ 'ST-DEVELOPER v20.1',
/* originating_system */ 'Autodesk Translation Framework v14.10.0.0',
/* authorisation */ '');

FILE_SCHEMA (('AUTOMOTIVE_DESIGN { 1 0 10303 214 3 1 1 }'));
ENDSEC;

DATA;
#10=MECHANICAL_DESIGN_GEOMETRIC_PRESENTATION_REPRESENTATION('',(#13),#588);
#11=SHAPE_REPRESENTATION_RELATIONSHIP('SRR','None',#595,#12);
#12=ADVANCED_BREP_SHAPE_REPRESENTATION('',(#14),#587);
#13=STYLED_ITEM('',(#604),#14);
#14=MANIFOLD_SOLID_BREP('Body1',#250);
#15=FACE_BOUND('',#55,.T.);
#16=PLANE('',#298);
#17=CYLINDRICAL_SURFACE('',#296,32.649747);
#18=CYLINDRICAL_SURFACE('',#300,33.6497470149012);
#19=B_SPLINE_CURVE_WITH_KNOTS('',3,(#449,#450,#451,#452),.UNSPECIFIED.,
 .F.,.F.,(4,4),(0.,1.),.UNSPECIFIED.);
#20=B_SPLINE_CURVE_WITH_KNOTS('',2,(#490,#491,#492),.UNSPECIFIED.,.F.,.F.,
(3,3),(0.,1.),.UNSPECIFIED.);
#21=(
BOUNDED_SURFACE()
B_SPLINE_SURFACE(3,2,((#412,#413,#414,#415,#416,#417,#418,#419,#420),(#421,
#422,#423,#424,#425,#426,#427,#428,#429),(#430,#431,#432,#433,#434,#435,
#436,#437,#438),(#439,#440,#441,#442,#443,#444,#445,#446,#447)),
 .UNSPECIFIED.,.F.,.T.,.F.)
B_SPLINE_SURFACE_WITH_KNOTS((4,4),(3,2,2,2,3),(-1.,0.),(0.,1.5707963267949,
3.14159265358979,4.71238898038469,6.28318530717959),.UNSPECIFIED.)
GEOMETRIC_REPRESENTATION_ITEM()
RATIONAL_B_SPLINE_SURFACE(((1.,0.707106781186548,1.,0.707106781186548,1.,
0.707106781186548,1.,0.707106781186548,1.),(1.,0.707106781186548,1.,0.707106781186548,
1.,0.707106781186548,1.,0.707106781186548,1.),(1.,0.707106781186548,1.,
0.707106781186548,1.,0.707106781186548,1.,0.707106781186548,1.),(1.,0.707106781186548,
1.,0.707106781186548,1.,0.707106781186548,1.,0.707106781186548,1.)))
REPRESENTATION_ITEM('')
SURFACE()
);
#22=(
BOUNDED_SURFACE()
B_SPLINE_SURFACE(2,2,((#462,#463,#464,#465,#466,#467,#468,#469,#470),(#471,
#472,#473,#474,#475,#476,#477,#478,#479),(#480,#481,#482,#483,#484,#485,
#486,#487,#488)),.UNSPECIFIED.,.F.,.T.,.F.)
B_SPLINE_SURFACE_WITH_KNOTS((3,3),(3,2,2,2,3),(0.,1.),(0.,1.5707963267949,
3.14159265358979,4.71238898038469,6.28318530717959),.UNSPECIFIED.)
GEOMETRIC_REPRESENTATION_ITEM()
RATIONAL_B_SPLINE_SURFACE(((1.,0.707106781186548,1.,0.707106781186548,1.,
0.707106781186548,1.,0.707106781186548,1.),(1.,0.707106781186548,1.,0.707106781186548,
1.,0.707106781186548,1.,0.707106781186548,1.),(1.,0.707106781186548,1.,
0.707106781186548,1.,0.707106781186548,1.,0.707106781186548,1.)))
REPRESENTATION_ITEM('')
SURFACE()
);
#23=(
BOUNDED_SURFACE()
B_SPLINE_SURFACE(2,2,((#512,#513,#514,#515,#516,#517,#518,#519,#520),(#521,
#522,#523,#524,#525,#526,#527,#528,#529),(#530,#531,#532,#533,#534,#535,
#536,#537,#538)),.UNSPECIFIED.,.F.,.T.,.F.)
B_SPLINE_SURFACE_WITH_KNOTS((3,3),(3,2,2,2,3),(3.64892847897703E-16,0.523598775598299),
(-3.14159265358979,-1.5707963267949,0.,1.5707963267949,3.14159265358979),
 .UNSPECIFIED.)
GEOMETRIC_REPRESENTATION_ITEM()
RATIONAL_B_SPLINE_SURFACE(((1.,0.707106781186548,1.,0.707106781186548,1.,
0.707106781186548,1.,0.707106781186548,1.),(0.965925826289064,0.683012701892216,
0.965925826289064,0.683012701892216,0.965925826289064,0.683012701892216,
0.965925826289064,0.683012701892216,0.965925826289064),(1.,0.707106781186548,
1.,0.707106781186548,1.,0.707106781186548,1.,0.707106781186548,1.)))
REPRESENTATION_ITEM('')
SURFACE()
);
#24=(
BOUNDED_SURFACE()
B_SPLINE_SURFACE(2,2,((#557,#558,#559,#560,#561,#562,#563,#564,#565),(#566,
#567,#568,#569,#570,#571,#572,#573,#574),(#575,#576,#577,#578,#579,#580,
#581,#582,#583)),.UNSPECIFIED.,.F.,.T.,.F.)
B_SPLINE_SURFACE_WITH_KNOTS((3,3),(3,2,2,2,3),(1.78774110269981E-16,0.523598775598299),
(-3.14159265358979,-1.5707963267949,0.,1.5707963267949,3.14159265358979),
 .UNSPECIFIED.)
GEOMETRIC_REPRESENTATION_ITEM()
RATIONAL_B_SPLINE_SURFACE(((1.,0.707106781186548,1.,0.707106781186548,1.,
0.707106781186548,1.,0.707106781186548,1.),(0.96592582628907,0.68301270189222,
0.96592582628907,0.68301270189222,0.96592582628907,0.68301270189222,0.96592582628907,
0.68301270189222,0.96592582628907),(1.,0.707106781186548,1.,0.707106781186548,
1.,0.707106781186548,1.,0.707106781186548,1.)))
REPRESENTATION_ITEM('')
SURFACE()
);
#25=TOROIDAL_SURFACE('',#269,40.812184,23.4873103918322);
#26=TOROIDAL_SURFACE('',#272,22.560975,5.23610139183223);
#27=TOROIDAL_SURFACE('',#283,22.560975,6.23610100000001);
#28=TOROIDAL_SURFACE('',#286,40.812184,24.4873104067334);
#29=FACE_OUTER_BOUND('',#43,.T.);
#30=FACE_OUTER_BOUND('',#44,.T.);
#31=FACE_OUTER_BOUND('',#45,.T.);
#32=FACE_OUTER_BOUND('',#46,.T.);
#33=FACE_OUTER_BOUND('',#47,.T.);
#34=FACE_OUTER_BOUND('',#48,.T.);
#35=FACE_OUTER_BOUND('',#49,.T.);
#36=FACE_OUTER_BOUND('',#50,.T.);
#37=FACE_OUTER_BOUND('',#51,.T.);
#38=FACE_OUTER_BOUND('',#52,.T.);
#39=FACE_OUTER_BOUND('',#53,.T.);
#40=FACE_OUTER_BOUND('',#54,.T.);
#41=FACE_OUTER_BOUND('',#56,.T.);
#42=FACE_OUTER_BOUND('',#57,.T.);
#43=EDGE_LOOP('',(#159,#160,#161,#162,#163,#164));
#44=EDGE_LOOP('',(#165,#166,#167,#168,#169));
#45=EDGE_LOOP('',(#170,#171,#172,#173,#174));
#46=EDGE_LOOP('',(#175,#176,#177,#178,#179,#180));
#47=EDGE_LOOP('',(#181,#182,#183,#184,#185,#186));
#48=EDGE_LOOP('',(#187,#188,#189,#190,#191,#192));
#49=EDGE_LOOP('',(#193,#194,#195,#196,#197));
#50=EDGE_LOOP('',(#198,#199,#200,#201,#202));
#51=EDGE_LOOP('',(#203,#204,#205,#206,#207,#208));
#52=EDGE_LOOP('',(#209,#210,#211,#212,#213,#214));
#53=EDGE_LOOP('',(#215,#216,#217,#218,#219));
#54=EDGE_LOOP('',(#220));
#55=EDGE_LOOP('',(#221));
#56=EDGE_LOOP('',(#222,#223,#224,#225,#226));
#57=EDGE_LOOP('',(#227,#228,#229,#230,#231,#232));
#58=LINE('',#397,#63);
#59=LINE('',#461,#64);
#60=LINE('',#508,#65);
#61=LINE('',#546,#66);
#62=LINE('',#555,#67);
#63=VECTOR('',#310,23.7326254296364);
#64=VECTOR('',#341,28.770644042795);
#65=VECTOR('',#362,22.8666000144617);
#66=VECTOR('',#375,32.649747);
#67=VECTOR('',#386,33.6497470149012);
#68=CIRCLE('',#265,20.4715764136603);
#69=CIRCLE('',#266,26.9936744456126);
#70=CIRCLE('',#267,26.9936744456126);
#71=CIRCLE('',#268,20.4715764136603);
#72=CIRCLE('',#270,23.4873103918322);
#73=CIRCLE('',#271,17.3248736081678);
#74=CIRCLE('',#273,5.23610139183223);
#75=CIRCLE('',#274,17.511269716687);
#76=CIRCLE('',#275,17.511269716687);
#77=CIRCLE('',#276,29.26577808559);
#78=CIRCLE('',#277,29.26577808559);
#79=CIRCLE('',#279,28.27551);
#80=CIRCLE('',#280,28.27551);
#81=CIRCLE('',#281,16.546868);
#82=CIRCLE('',#282,16.546868);
#83=CIRCLE('',#284,16.324874);
#84=CIRCLE('',#285,6.23610100000001);
#85=CIRCLE('',#287,19.605551);
#86=CIRCLE('',#288,19.605551);
#87=CIRCLE('',#289,24.4873104067334);
#88=CIRCLE('',#291,26.1276490289233);
#89=CIRCLE('',#292,26.1276490289233);
#90=CIRCLE('',#293,48.681602);
#91=CIRCLE('',#294,32.649747);
#92=CIRCLE('',#295,32.649747);
#93=CIRCLE('',#297,32.649747);
#94=CIRCLE('',#299,33.6497470149012);
#95=CIRCLE('',#301,33.6497470149012);
#96=CIRCLE('',#302,33.6497470149012);
#97=CIRCLE('',#303,49.6816020149012);
#98=VERTEX_POINT('',#393);
#99=VERTEX_POINT('',#394);
#100=VERTEX_POINT('',#396);
#101=VERTEX_POINT('',#398);
#102=VERTEX_POINT('',#403);
#103=VERTEX_POINT('',#407);
#104=VERTEX_POINT('',#409);
#105=VERTEX_POINT('',#448);
#106=VERTEX_POINT('',#453);
#107=VERTEX_POINT('',#457);
#108=VERTEX_POINT('',#458);
#109=VERTEX_POINT('',#489);
#110=VERTEX_POINT('',#493);
#111=VERTEX_POINT('',#497);
#112=VERTEX_POINT('',#501);
#113=VERTEX_POINT('',#502);
#114=VERTEX_POINT('',#507);
#115=VERTEX_POINT('',#509);
#116=VERTEX_POINT('',#539);
#117=VERTEX_POINT('',#541);
#118=VERTEX_POINT('',#545);
#119=VERTEX_POINT('',#549);
#120=VERTEX_POINT('',#552);
#121=VERTEX_POINT('',#553);
#122=EDGE_CURVE('',#98,#99,#68,.T.);
#123=EDGE_CURVE('',#98,#100,#58,.T.);
#124=EDGE_CURVE('',#100,#101,#69,.T.);
#125=EDGE_CURVE('',#101,#100,#70,.T.);
#126=EDGE_CURVE('',#99,#98,#71,.T.);
#127=EDGE_CURVE('',#99,#102,#72,.T.);
#128=EDGE_CURVE('',#102,#102,#73,.T.);
#129=EDGE_CURVE('',#102,#103,#74,.T.);
#130=EDGE_CURVE('',#104,#103,#75,.T.);
#131=EDGE_CURVE('',#103,#104,#76,.T.);
#132=EDGE_CURVE('',#104,#105,#19,.T.);
#133=EDGE_CURVE('',#106,#105,#77,.T.);
#134=EDGE_CURVE('',#105,#106,#78,.T.);
#135=EDGE_CURVE('',#107,#108,#79,.T.);
#136=EDGE_CURVE('',#108,#107,#80,.T.);
#137=EDGE_CURVE('',#108,#106,#59,.T.);
#138=EDGE_CURVE('',#109,#107,#20,.T.);
#139=EDGE_CURVE('',#110,#109,#81,.T.);
#140=EDGE_CURVE('',#109,#110,#82,.T.);
#141=EDGE_CURVE('',#111,#111,#83,.T.);
#142=EDGE_CURVE('',#111,#110,#84,.T.);
#143=EDGE_CURVE('',#112,#113,#85,.T.);
#144=EDGE_CURVE('',#113,#112,#86,.T.);
#145=EDGE_CURVE('',#113,#111,#87,.T.);
#146=EDGE_CURVE('',#112,#114,#60,.T.);
#147=EDGE_CURVE('',#115,#114,#88,.T.);
#148=EDGE_CURVE('',#114,#115,#89,.T.);
#149=EDGE_CURVE('',#115,#116,#90,.T.);
#150=EDGE_CURVE('',#117,#116,#91,.T.);
#151=EDGE_CURVE('',#116,#117,#92,.T.);
#152=EDGE_CURVE('',#117,#118,#61,.T.);
#153=EDGE_CURVE('',#118,#118,#93,.T.);
#154=EDGE_CURVE('',#119,#119,#94,.T.);
#155=EDGE_CURVE('',#120,#121,#95,.T.);
#156=EDGE_CURVE('',#120,#119,#62,.T.);
#157=EDGE_CURVE('',#121,#120,#96,.T.);
#158=EDGE_CURVE('',#101,#121,#97,.T.);
#159=ORIENTED_EDGE('',*,*,#122,.F.);
#160=ORIENTED_EDGE('',*,*,#123,.T.);
#161=ORIENTED_EDGE('',*,*,#124,.T.);
#162=ORIENTED_EDGE('',*,*,#125,.T.);
#163=ORIENTED_EDGE('',*,*,#123,.F.);
#164=ORIENTED_EDGE('',*,*,#126,.F.);
#165=ORIENTED_EDGE('',*,*,#122,.T.);
#166=ORIENTED_EDGE('',*,*,#127,.T.);
#167=ORIENTED_EDGE('',*,*,#128,.F.);
#168=ORIENTED_EDGE('',*,*,#127,.F.);
#169=ORIENTED_EDGE('',*,*,#126,.T.);
#170=ORIENTED_EDGE('',*,*,#128,.T.);
#171=ORIENTED_EDGE('',*,*,#129,.T.);
#172=ORIENTED_EDGE('',*,*,#130,.F.);
#173=ORIENTED_EDGE('',*,*,#131,.F.);
#174=ORIENTED_EDGE('',*,*,#129,.F.);
#175=ORIENTED_EDGE('',*,*,#132,.F.);
#176=ORIENTED_EDGE('',*,*,#130,.T.);
#177=ORIENTED_EDGE('',*,*,#131,.T.);
#178=ORIENTED_EDGE('',*,*,#132,.T.);
#179=ORIENTED_EDGE('',*,*,#133,.F.);
#180=ORIENTED_EDGE('',*,*,#134,.F.);
#181=ORIENTED_EDGE('',*,*,#135,.F.);
#182=ORIENTED_EDGE('',*,*,#136,.F.);
#183=ORIENTED_EDGE('',*,*,#137,.T.);
#184=ORIENTED_EDGE('',*,*,#133,.T.);
#185=ORIENTED_EDGE('',*,*,#134,.T.);
#186=ORIENTED_EDGE('',*,*,#137,.F.);
#187=ORIENTED_EDGE('',*,*,#138,.T.);
#188=ORIENTED_EDGE('',*,*,#135,.T.);
#189=ORIENTED_EDGE('',*,*,#136,.T.);
#190=ORIENTED_EDGE('',*,*,#138,.F.);
#191=ORIENTED_EDGE('',*,*,#139,.F.);
#192=ORIENTED_EDGE('',*,*,#140,.F.);
#193=ORIENTED_EDGE('',*,*,#141,.F.);
#194=ORIENTED_EDGE('',*,*,#142,.T.);
#195=ORIENTED_EDGE('',*,*,#139,.T.);
#196=ORIENTED_EDGE('',*,*,#140,.T.);
#197=ORIENTED_EDGE('',*,*,#142,.F.);
#198=ORIENTED_EDGE('',*,*,#143,.F.);
#199=ORIENTED_EDGE('',*,*,#144,.F.);
#200=ORIENTED_EDGE('',*,*,#145,.T.);
#201=ORIENTED_EDGE('',*,*,#141,.T.);
#202=ORIENTED_EDGE('',*,*,#145,.F.);
#203=ORIENTED_EDGE('',*,*,#143,.T.);
#204=ORIENTED_EDGE('',*,*,#144,.T.);
#205=ORIENTED_EDGE('',*,*,#146,.T.);
#206=ORIENTED_EDGE('',*,*,#147,.F.);
#207=ORIENTED_EDGE('',*,*,#148,.F.);
#208=ORIENTED_EDGE('',*,*,#146,.F.);
#209=ORIENTED_EDGE('',*,*,#148,.T.);
#210=ORIENTED_EDGE('',*,*,#149,.T.);
#211=ORIENTED_EDGE('',*,*,#150,.F.);
#212=ORIENTED_EDGE('',*,*,#151,.F.);
#213=ORIENTED_EDGE('',*,*,#149,.F.);
#214=ORIENTED_EDGE('',*,*,#147,.T.);
#215=ORIENTED_EDGE('',*,*,#150,.T.);
#216=ORIENTED_EDGE('',*,*,#151,.T.);
#217=ORIENTED_EDGE('',*,*,#152,.T.);
#218=ORIENTED_EDGE('',*,*,#153,.F.);
#219=ORIENTED_EDGE('',*,*,#152,.F.);
#220=ORIENTED_EDGE('',*,*,#154,.F.);
#221=ORIENTED_EDGE('',*,*,#153,.T.);
#222=ORIENTED_EDGE('',*,*,#155,.F.);
#223=ORIENTED_EDGE('',*,*,#156,.T.);
#224=ORIENTED_EDGE('',*,*,#154,.T.);
#225=ORIENTED_EDGE('',*,*,#156,.F.);
#226=ORIENTED_EDGE('',*,*,#157,.F.);
#227=ORIENTED_EDGE('',*,*,#124,.F.);
#228=ORIENTED_EDGE('',*,*,#125,.F.);
#229=ORIENTED_EDGE('',*,*,#158,.T.);
#230=ORIENTED_EDGE('',*,*,#157,.T.);
#231=ORIENTED_EDGE('',*,*,#155,.T.);
#232=ORIENTED_EDGE('',*,*,#158,.F.);
#233=CONICAL_SURFACE('',#264,23.7326254296364,0.523598781656167);
#234=CONICAL_SURFACE('',#278,28.770644042795,1.43117000166869);
#235=CONICAL_SURFACE('',#290,22.8666000144617,0.523598781656167);
#236=ADVANCED_FACE('',(#29),#233,.T.);
#237=ADVANCED_FACE('',(#30),#25,.F.);
#238=ADVANCED_FACE('',(#31),#26,.F.);
#239=ADVANCED_FACE('',(#32),#21,.T.);
#240=ADVANCED_FACE('',(#33),#234,.T.);
#241=ADVANCED_FACE('',(#34),#22,.T.);
#242=ADVANCED_FACE('',(#35),#27,.T.);
#243=ADVANCED_FACE('',(#36),#28,.T.);
#244=ADVANCED_FACE('',(#37),#235,.F.);
#245=ADVANCED_FACE('',(#38),#23,.T.);
#246=ADVANCED_FACE('',(#39),#17,.F.);
#247=ADVANCED_FACE('',(#40,#15),#16,.T.);
#248=ADVANCED_FACE('',(#41),#18,.T.);
#249=ADVANCED_FACE('',(#42),#24,.F.);
#250=CLOSED_SHELL('',(#236,#237,#238,#239,#240,#241,#242,#243,#244,#245,
#246,#247,#248,#249));
#251=DERIVED_UNIT_ELEMENT(#253,1.);
#252=DERIVED_UNIT_ELEMENT(#590,-3.);
#253=(
MASS_UNIT()
NAMED_UNIT(*)
SI_UNIT(.KILO.,.GRAM.)
);
#254=DERIVED_UNIT((#251,#252));
#255=MEASURE_REPRESENTATION_ITEM('density measure',
POSITIVE_RATIO_MEASURE(7850.),#254);
#256=PROPERTY_DEFINITION_REPRESENTATION(#261,#258);
#257=PROPERTY_DEFINITION_REPRESENTATION(#262,#259);
#258=REPRESENTATION('material name',(#260),#587);
#259=REPRESENTATION('density',(#255),#587);
#260=DESCRIPTIVE_REPRESENTATION_ITEM('Steel','Steel');
#261=PROPERTY_DEFINITION('material property','material name',#597);
#262=PROPERTY_DEFINITION('material property','density of part',#597);
#263=AXIS2_PLACEMENT_3D('',#391,#304,#305);
#264=AXIS2_PLACEMENT_3D('',#392,#306,#307);
#265=AXIS2_PLACEMENT_3D('',#395,#308,#309);
#266=AXIS2_PLACEMENT_3D('',#399,#311,#312);
#267=AXIS2_PLACEMENT_3D('',#400,#313,#314);
#268=AXIS2_PLACEMENT_3D('',#401,#315,#316);
#269=AXIS2_PLACEMENT_3D('',#402,#317,#318);
#270=AXIS2_PLACEMENT_3D('',#404,#319,#320);
#271=AXIS2_PLACEMENT_3D('',#405,#321,#322);
#272=AXIS2_PLACEMENT_3D('',#406,#323,#324);
#273=AXIS2_PLACEMENT_3D('',#408,#325,#326);
#274=AXIS2_PLACEMENT_3D('',#410,#327,#328);
#275=AXIS2_PLACEMENT_3D('',#411,#329,#330);
#276=AXIS2_PLACEMENT_3D('',#454,#331,#332);
#277=AXIS2_PLACEMENT_3D('',#455,#333,#334);
#278=AXIS2_PLACEMENT_3D('',#456,#335,#336);
#279=AXIS2_PLACEMENT_3D('',#459,#337,#338);
#280=AXIS2_PLACEMENT_3D('',#460,#339,#340);
#281=AXIS2_PLACEMENT_3D('',#494,#342,#343);
#282=AXIS2_PLACEMENT_3D('',#495,#344,#345);
#283=AXIS2_PLACEMENT_3D('',#496,#346,#347);
#284=AXIS2_PLACEMENT_3D('',#498,#348,#349);
#285=AXIS2_PLACEMENT_3D('',#499,#350,#351);
#286=AXIS2_PLACEMENT_3D('',#500,#352,#353);
#287=AXIS2_PLACEMENT_3D('',#503,#354,#355);
#288=AXIS2_PLACEMENT_3D('',#504,#356,#357);
#289=AXIS2_PLACEMENT_3D('',#505,#358,#359);
#290=AXIS2_PLACEMENT_3D('',#506,#360,#361);
#291=AXIS2_PLACEMENT_3D('',#510,#363,#364);
#292=AXIS2_PLACEMENT_3D('',#511,#365,#366);
#293=AXIS2_PLACEMENT_3D('',#540,#367,#368);
#294=AXIS2_PLACEMENT_3D('',#542,#369,#370);
#295=AXIS2_PLACEMENT_3D('',#543,#371,#372);
#296=AXIS2_PLACEMENT_3D('',#544,#373,#374);
#297=AXIS2_PLACEMENT_3D('',#547,#376,#377);
#298=AXIS2_PLACEMENT_3D('',#548,#378,#379);
#299=AXIS2_PLACEMENT_3D('',#550,#380,#381);
#300=AXIS2_PLACEMENT_3D('',#551,#382,#383);
#301=AXIS2_PLACEMENT_3D('',#554,#384,#385);
#302=AXIS2_PLACEMENT_3D('',#556,#387,#388);
#303=AXIS2_PLACEMENT_3D('',#584,#389,#390);
#304=DIRECTION('axis',(0.,0.,1.));
#305=DIRECTION('refdir',(1.,0.,0.));
#306=DIRECTION('center_axis',(-1.,0.,0.));
#307=DIRECTION('ref_axis',(0.,1.,0.));
#308=DIRECTION('center_axis',(1.,0.,0.));
#309=DIRECTION('ref_axis',(0.,0.,-1.));
#310=DIRECTION('',(-0.866025400755504,-0.500000005246268,-6.12323405998501E-17));
#311=DIRECTION('center_axis',(1.,0.,0.));
#312=DIRECTION('ref_axis',(0.,0.,-1.));
#313=DIRECTION('center_axis',(1.,0.,0.));
#314=DIRECTION('ref_axis',(0.,0.,-1.));
#315=DIRECTION('center_axis',(1.,0.,0.));
#316=DIRECTION('ref_axis',(0.,0.,-1.));
#317=DIRECTION('center_axis',(1.,0.,0.));
#318=DIRECTION('ref_axis',(0.,0.,-1.));
#319=DIRECTION('center_axis',(0.,-1.,-1.22464679914735E-16));
#320=DIRECTION('ref_axis',(0.,-1.22464679914735E-16,1.));
#321=DIRECTION('center_axis',(1.,0.,0.));
#322=DIRECTION('ref_axis',(0.,0.,-1.));
#323=DIRECTION('center_axis',(1.,0.,0.));
#324=DIRECTION('ref_axis',(0.,0.,-1.));
#325=DIRECTION('center_axis',(0.,-1.,-1.22464679914735E-16));
#326=DIRECTION('ref_axis',(0.,-1.22464679914735E-16,1.));
#327=DIRECTION('center_axis',(1.,0.,0.));
#328=DIRECTION('ref_axis',(0.,0.,-1.));
#329=DIRECTION('center_axis',(1.,0.,0.));
#330=DIRECTION('ref_axis',(0.,0.,-1.));
#331=DIRECTION('center_axis',(1.,0.,0.));
#332=DIRECTION('ref_axis',(0.,0.,-1.));
#333=DIRECTION('center_axis',(1.,0.,0.));
#334=DIRECTION('ref_axis',(0.,0.,-1.));
#335=DIRECTION('center_axis',(-1.,0.,0.));
#336=DIRECTION('ref_axis',(0.,1.,0.));
#337=DIRECTION('center_axis',(1.,0.,0.));
#338=DIRECTION('ref_axis',(0.,0.,-1.));
#339=DIRECTION('center_axis',(1.,0.,0.));
#340=DIRECTION('ref_axis',(0.,0.,-1.));
#341=DIRECTION('',(-0.139173086073028,-0.990268070833807,-1.21272862324445E-16));
#342=DIRECTION('center_axis',(1.,0.,0.));
#343=DIRECTION('ref_axis',(0.,0.,-1.));
#344=DIRECTION('center_axis',(1.,0.,0.));
#345=DIRECTION('ref_axis',(0.,0.,-1.));
#346=DIRECTION('center_axis',(1.,0.,0.));
#347=DIRECTION('ref_axis',(0.,0.,-1.));
#348=DIRECTION('center_axis',(1.,0.,0.));
#349=DIRECTION('ref_axis',(0.,0.,-1.));
#350=DIRECTION('center_axis',(0.,-1.,-1.22464679914735E-16));
#351=DIRECTION('ref_axis',(0.,-1.22464679914735E-16,1.));
#352=DIRECTION('center_axis',(1.,0.,0.));
#353=DIRECTION('ref_axis',(0.,0.,-1.));
#354=DIRECTION('center_axis',(1.,0.,0.));
#355=DIRECTION('ref_axis',(0.,0.,-1.));
#356=DIRECTION('center_axis',(1.,0.,0.));
#357=DIRECTION('ref_axis',(0.,0.,-1.));
#358=DIRECTION('center_axis',(0.,-1.,-1.22464679914735E-16));
#359=DIRECTION('ref_axis',(0.,-1.22464679914735E-16,1.));
#360=DIRECTION('center_axis',(-1.,0.,0.));
#361=DIRECTION('ref_axis',(0.,1.,0.));
#362=DIRECTION('',(-0.866025400755504,-0.500000005246268,-6.12323405998502E-17));
#363=DIRECTION('center_axis',(1.,0.,0.));
#364=DIRECTION('ref_axis',(0.,0.,-1.));
#365=DIRECTION('center_axis',(1.,0.,0.));
#366=DIRECTION('ref_axis',(0.,0.,-1.));
#367=DIRECTION('center_axis',(0.,-1.,-1.22464679914735E-16));
#368=DIRECTION('ref_axis',(0.,-1.22464679914735E-16,1.));
#369=DIRECTION('center_axis',(1.,0.,0.));
#370=DIRECTION('ref_axis',(0.,0.,-1.));
#371=DIRECTION('center_axis',(1.,0.,0.));
#372=DIRECTION('ref_axis',(0.,0.,-1.));
#373=DIRECTION('center_axis',(1.,0.,0.));
#374=DIRECTION('ref_axis',(0.,1.,0.));
#375=DIRECTION('',(-1.,0.,0.));
#376=DIRECTION('center_axis',(1.,0.,0.));
#377=DIRECTION('ref_axis',(0.,0.,-1.));
#378=DIRECTION('center_axis',(-1.,0.,0.));
#379=DIRECTION('ref_axis',(0.,0.,1.));
#380=DIRECTION('center_axis',(1.,0.,0.));
#381=DIRECTION('ref_axis',(0.,0.,-1.));
#382=DIRECTION('center_axis',(1.,0.,0.));
#383=DIRECTION('ref_axis',(0.,1.,0.));
#384=DIRECTION('center_axis',(1.,0.,0.));
#385=DIRECTION('ref_axis',(0.,0.,-1.));
#386=DIRECTION('',(-1.,0.,0.));
#387=DIRECTION('center_axis',(1.,0.,0.));
#388=DIRECTION('ref_axis',(0.,0.,-1.));
#389=DIRECTION('center_axis',(0.,-1.,-1.22464679914735E-16));
#390=DIRECTION('ref_axis',(0.,-1.22464679914735E-16,1.));
#391=CARTESIAN_POINT('',(0.,0.,0.));
#392=CARTESIAN_POINT('Origin',(100.528706510074,0.,0.));
#393=CARTESIAN_POINT('',(106.177009012697,-20.4715764136603,-2.50704505284895E-15));
#394=CARTESIAN_POINT('',(106.177009012697,-2.50704505284895E-15,20.4715764136603));
#395=CARTESIAN_POINT('Origin',(106.177009012697,0.,0.));
#396=CARTESIAN_POINT('',(94.8804040074506,-26.9936744456126,-3.30577170070451E-15));
#397=CARTESIAN_POINT('',(100.528706510074,-23.7326254296364,-2.90640837677673E-15));
#398=CARTESIAN_POINT('',(94.8804040074506,-3.30577170070451E-15,26.9936744456126));
#399=CARTESIAN_POINT('Origin',(94.8804040074506,0.,0.));
#400=CARTESIAN_POINT('Origin',(94.8804040074506,0.,0.));
#401=CARTESIAN_POINT('Origin',(106.177009012697,0.,0.));
#402=CARTESIAN_POINT('Origin',(117.920664,0.,0.));
#403=CARTESIAN_POINT('',(117.920664,-2.12168510098751E-15,17.3248736081678));
#404=CARTESIAN_POINT('Origin',(117.920664,-4.99805105018128E-15,40.812184));
#405=CARTESIAN_POINT('Origin',(117.920664,0.,0.));
#406=CARTESIAN_POINT('Origin',(117.920664,0.,0.));
#407=CARTESIAN_POINT('',(119.305307402188,-2.14451204075467E-15,17.511269716687));
#408=CARTESIAN_POINT('Origin',(117.920664,-2.76292258193935E-15,22.560975));
#409=CARTESIAN_POINT('',(119.305307402188,17.511269716687,0.));
#410=CARTESIAN_POINT('Origin',(119.305307402188,0.,0.));
#411=CARTESIAN_POINT('Origin',(119.305307402188,0.,0.));
#412=CARTESIAN_POINT('Ctrl Pts',(174.923608911853,29.26577808559,0.));
#413=CARTESIAN_POINT('Ctrl Pts',(174.923608911853,29.2657780855899,29.2657780855899));
#414=CARTESIAN_POINT('Ctrl Pts',(174.923608911853,0.,29.26577808559));
#415=CARTESIAN_POINT('Ctrl Pts',(174.923608911853,-29.2657780855899,29.2657780855899));
#416=CARTESIAN_POINT('Ctrl Pts',(174.923608911853,-29.26577808559,0.));
#417=CARTESIAN_POINT('Ctrl Pts',(174.923608911853,-29.2657780855899,-29.2657780855899));
#418=CARTESIAN_POINT('Ctrl Pts',(174.923608911853,0.,-29.26577808559));
#419=CARTESIAN_POINT('Ctrl Pts',(174.923608911853,29.2657780855899,-29.2657780855899));
#420=CARTESIAN_POINT('Ctrl Pts',(174.923608911853,29.26577808559,0.));
#421=CARTESIAN_POINT('Ctrl Pts',(157.479231820276,26.8141310357039,0.));
#422=CARTESIAN_POINT('Ctrl Pts',(157.479231820276,26.8141310357039,26.8141310357039));
#423=CARTESIAN_POINT('Ctrl Pts',(157.479231820276,0.,26.8141310357039));
#424=CARTESIAN_POINT('Ctrl Pts',(157.479231820276,-26.8141310357039,26.8141310357039));
#425=CARTESIAN_POINT('Ctrl Pts',(157.479231820276,-26.8141310357039,0.));
#426=CARTESIAN_POINT('Ctrl Pts',(157.479231820276,-26.8141310357039,-26.8141310357039));
#427=CARTESIAN_POINT('Ctrl Pts',(157.479231820276,0.,-26.8141310357039));
#428=CARTESIAN_POINT('Ctrl Pts',(157.479231820276,26.8141310357039,-26.8141310357039));
#429=CARTESIAN_POINT('Ctrl Pts',(157.479231820276,26.8141310357039,0.));
#430=CARTESIAN_POINT('Ctrl Pts',(138.940502530442,22.8952941156769,0.));
#431=CARTESIAN_POINT('Ctrl Pts',(138.940502530442,22.8952941156769,22.8952941156769));
#432=CARTESIAN_POINT('Ctrl Pts',(138.940502530442,0.,22.8952941156769));
#433=CARTESIAN_POINT('Ctrl Pts',(138.940502530442,-22.8952941156769,22.8952941156769));
#434=CARTESIAN_POINT('Ctrl Pts',(138.940502530442,-22.8952941156769,0.));
#435=CARTESIAN_POINT('Ctrl Pts',(138.940502530442,-22.8952941156769,-22.8952941156769));
#436=CARTESIAN_POINT('Ctrl Pts',(138.940502530442,0.,-22.8952941156769));
#437=CARTESIAN_POINT('Ctrl Pts',(138.940502530442,22.8952941156769,-22.8952941156769));
#438=CARTESIAN_POINT('Ctrl Pts',(138.940502530442,22.8952941156769,0.));
#439=CARTESIAN_POINT('Ctrl Pts',(119.305307402188,17.511269716687,0.));
#440=CARTESIAN_POINT('Ctrl Pts',(119.305307402188,17.511269716687,17.511269716687));
#441=CARTESIAN_POINT('Ctrl Pts',(119.305307402188,0.,17.511269716687));
#442=CARTESIAN_POINT('Ctrl Pts',(119.305307402188,-17.511269716687,17.511269716687));
#443=CARTESIAN_POINT('Ctrl Pts',(119.305307402188,-17.511269716687,0.));
#444=CARTESIAN_POINT('Ctrl Pts',(119.305307402188,-17.511269716687,-17.511269716687));
#445=CARTESIAN_POINT('Ctrl Pts',(119.305307402188,0.,-17.511269716687));
#446=CARTESIAN_POINT('Ctrl Pts',(119.305307402188,17.511269716687,-17.511269716687));
#447=CARTESIAN_POINT('Ctrl Pts',(119.305307402188,17.511269716687,0.));
#448=CARTESIAN_POINT('',(174.923608911853,29.26577808559,0.));
#449=CARTESIAN_POINT('Ctrl Pts',(119.305307402188,17.511269716687,0.));
#450=CARTESIAN_POINT('Ctrl Pts',(138.940502530442,22.8952941156769,0.));
#451=CARTESIAN_POINT('Ctrl Pts',(157.479231820276,26.8141310357039,0.));
#452=CARTESIAN_POINT('Ctrl Pts',(174.923608911853,29.26577808559,0.));
#453=CARTESIAN_POINT('',(174.923608911853,-29.26577808559,-3.58402414570745E-15));
#454=CARTESIAN_POINT('Origin',(174.923608911853,0.,0.));
#455=CARTESIAN_POINT('Origin',(174.923608911853,0.,0.));
#456=CARTESIAN_POINT('Origin',(174.993195455927,0.,0.));
#457=CARTESIAN_POINT('',(175.062782,28.27551,0.));
#458=CARTESIAN_POINT('',(175.062782,-28.27551,-3.4627512815759E-15));
#459=CARTESIAN_POINT('Origin',(175.062782,0.,0.));
#460=CARTESIAN_POINT('Origin',(175.062782,0.,0.));
#461=CARTESIAN_POINT('',(174.993195455927,-28.770644042795,-3.52338771364167E-15));
#462=CARTESIAN_POINT('Ctrl Pts',(119.569749,16.546868,0.));
#463=CARTESIAN_POINT('Ctrl Pts',(119.569749,16.546868,16.546868));
#464=CARTESIAN_POINT('Ctrl Pts',(119.569749,0.,16.546868));
#465=CARTESIAN_POINT('Ctrl Pts',(119.569749,-16.546868,16.546868));
#466=CARTESIAN_POINT('Ctrl Pts',(119.569749,-16.546868,0.));
#467=CARTESIAN_POINT('Ctrl Pts',(119.569749,-16.546868,-16.546868));
#468=CARTESIAN_POINT('Ctrl Pts',(119.569749,0.,-16.546868));
#469=CARTESIAN_POINT('Ctrl Pts',(119.569749,16.546868,-16.546868));
#470=CARTESIAN_POINT('Ctrl Pts',(119.569749,16.546868,0.));
#471=CARTESIAN_POINT('Ctrl Pts',(148.969338,24.608316,0.));
#472=CARTESIAN_POINT('Ctrl Pts',(148.969338,24.608316,24.608316));
#473=CARTESIAN_POINT('Ctrl Pts',(148.969338,0.,24.608316));
#474=CARTESIAN_POINT('Ctrl Pts',(148.969338,-24.608316,24.608316));
#475=CARTESIAN_POINT('Ctrl Pts',(148.969338,-24.608316,0.));
#476=CARTESIAN_POINT('Ctrl Pts',(148.969338,-24.608316,-24.608316));
#477=CARTESIAN_POINT('Ctrl Pts',(148.969338,0.,-24.608316));
#478=CARTESIAN_POINT('Ctrl Pts',(148.969338,24.608316,-24.608316));
#479=CARTESIAN_POINT('Ctrl Pts',(148.969338,24.608316,0.));
#480=CARTESIAN_POINT('Ctrl Pts',(175.062782,28.27551,0.));
#481=CARTESIAN_POINT('Ctrl Pts',(175.062782,28.27551,28.27551));
#482=CARTESIAN_POINT('Ctrl Pts',(175.062782,0.,28.27551));
#483=CARTESIAN_POINT('Ctrl Pts',(175.062782,-28.27551,28.27551));
#484=CARTESIAN_POINT('Ctrl Pts',(175.062782,-28.27551,0.));
#485=CARTESIAN_POINT('Ctrl Pts',(175.062782,-28.27551,-28.27551));
#486=CARTESIAN_POINT('Ctrl Pts',(175.062782,0.,-28.27551));
#487=CARTESIAN_POINT('Ctrl Pts',(175.062782,28.27551,-28.27551));
#488=CARTESIAN_POINT('Ctrl Pts',(175.062782,28.27551,0.));
#489=CARTESIAN_POINT('',(119.569749,16.546868,0.));
#490=CARTESIAN_POINT('Ctrl Pts',(119.569749,16.546868,0.));
#491=CARTESIAN_POINT('Ctrl Pts',(148.969338,24.608316,0.));
#492=CARTESIAN_POINT('Ctrl Pts',(175.062782,28.27551,0.));
#493=CARTESIAN_POINT('',(119.569749,-2.02640689321138E-15,16.546868));
#494=CARTESIAN_POINT('Origin',(119.569749,0.,0.));
#495=CARTESIAN_POINT('Origin',(119.569749,0.,0.));
#496=CARTESIAN_POINT('Origin',(117.920664,0.,0.));
#497=CARTESIAN_POINT('',(117.920664,-1.99922046905838E-15,16.324874));
#498=CARTESIAN_POINT('Origin',(117.920664,0.,0.));
#499=CARTESIAN_POINT('Origin',(117.920664,-2.76292258193935E-15,22.560975));
#500=CARTESIAN_POINT('Origin',(117.920664,0.,0.));
#501=CARTESIAN_POINT('',(105.677009,-19.605551,-2.40098752776702E-15));
#502=CARTESIAN_POINT('',(105.677009,-2.40098752776702E-15,19.605551));
#503=CARTESIAN_POINT('Origin',(105.677009,0.,0.));
#504=CARTESIAN_POINT('Origin',(105.677009,0.,0.));
#505=CARTESIAN_POINT('Origin',(117.920664,-4.99805105018128E-15,40.812184));
#506=CARTESIAN_POINT('Origin',(100.0287065,0.,0.));
#507=CARTESIAN_POINT('',(94.380404,-26.1276490289233,-3.19971417525164E-15));
#508=CARTESIAN_POINT('',(100.0287065,-22.8666000144617,-2.80035085150933E-15));
#509=CARTESIAN_POINT('',(94.380404,-3.19971417525164E-15,26.1276490289233));
#510=CARTESIAN_POINT('Origin',(94.380404,0.,0.));
#511=CARTESIAN_POINT('Origin',(94.380404,0.,0.));
#512=CARTESIAN_POINT('Ctrl Pts',(70.039603,0.,32.649747));
#513=CARTESIAN_POINT('Ctrl Pts',(70.039603,-32.649747,32.649747));
#514=CARTESIAN_POINT('Ctrl Pts',(70.039603,-32.649747,0.));
#515=CARTESIAN_POINT('Ctrl Pts',(70.039603,-32.649747,-32.649747));
#516=CARTESIAN_POINT('Ctrl Pts',(70.039603,0.,-32.649747));
#517=CARTESIAN_POINT('Ctrl Pts',(70.039603,32.649747,-32.649747));
#518=CARTESIAN_POINT('Ctrl Pts',(70.039603,32.649747,0.));
#519=CARTESIAN_POINT('Ctrl Pts',(70.039603,32.649747,32.649747));
#520=CARTESIAN_POINT('Ctrl Pts',(70.039603,0.,32.649747));
#521=CARTESIAN_POINT('Ctrl Pts',(83.0837989421534,0.,32.649747));
#522=CARTESIAN_POINT('Ctrl Pts',(83.0837989421534,-32.649747,32.649747));
#523=CARTESIAN_POINT('Ctrl Pts',(83.0837989421534,-32.649747,0.));
#524=CARTESIAN_POINT('Ctrl Pts',(83.0837989421534,-32.649747,-32.649747));
#525=CARTESIAN_POINT('Ctrl Pts',(83.0837989421534,0.,-32.649747));
#526=CARTESIAN_POINT('Ctrl Pts',(83.0837989421534,32.649747,-32.649747));
#527=CARTESIAN_POINT('Ctrl Pts',(83.0837989421534,32.649747,0.));
#528=CARTESIAN_POINT('Ctrl Pts',(83.0837989421534,32.649747,32.649747));
#529=CARTESIAN_POINT('Ctrl Pts',(83.0837989421534,0.,32.649747));
#530=CARTESIAN_POINT('Ctrl Pts',(94.380404,0.,26.1276490289233));
#531=CARTESIAN_POINT('Ctrl Pts',(94.380404,-26.1276490289233,26.1276490289233));
#532=CARTESIAN_POINT('Ctrl Pts',(94.380404,-26.1276490289233,0.));
#533=CARTESIAN_POINT('Ctrl Pts',(94.380404,-26.1276490289233,-26.1276490289233));
#534=CARTESIAN_POINT('Ctrl Pts',(94.380404,0.,-26.1276490289233));
#535=CARTESIAN_POINT('Ctrl Pts',(94.380404,26.1276490289233,-26.1276490289233));
#536=CARTESIAN_POINT('Ctrl Pts',(94.380404,26.1276490289233,0.));
#537=CARTESIAN_POINT('Ctrl Pts',(94.380404,26.1276490289233,26.1276490289233));
#538=CARTESIAN_POINT('Ctrl Pts',(94.380404,0.,26.1276490289233));
#539=CARTESIAN_POINT('',(70.039603,-3.99844081565209E-15,32.649747));
#540=CARTESIAN_POINT('Origin',(70.039603,1.96333599101445E-15,-16.031855));
#541=CARTESIAN_POINT('',(70.039603,-32.649747,-3.99844081565209E-15));
#542=CARTESIAN_POINT('Origin',(70.039603,0.,0.));
#543=CARTESIAN_POINT('Origin',(70.039603,0.,0.));
#544=CARTESIAN_POINT('Origin',(35.0198015,0.,0.));
#545=CARTESIAN_POINT('',(0.,-32.649747,-3.99844081565209E-15));
#546=CARTESIAN_POINT('',(35.0198015,-32.649747,-3.99844081565209E-15));
#547=CARTESIAN_POINT('Origin',(0.,0.,0.));
#548=CARTESIAN_POINT('Origin',(0.,33.6497470149012,0.));
#549=CARTESIAN_POINT('',(0.,-33.6497470149012,-4.12090549739169E-15));
#550=CARTESIAN_POINT('Origin',(0.,0.,0.));
#551=CARTESIAN_POINT('Origin',(35.0198015,0.,0.));
#552=CARTESIAN_POINT('',(70.039603,-33.6497470149012,-4.12090549739169E-15));
#553=CARTESIAN_POINT('',(70.039603,-4.12090549739169E-15,33.6497470149012));
#554=CARTESIAN_POINT('Origin',(70.039603,0.,0.));
#555=CARTESIAN_POINT('',(35.0198015,-33.6497470149012,-4.12090549739169E-15));
#556=CARTESIAN_POINT('Origin',(70.039603,0.,0.));
#557=CARTESIAN_POINT('Ctrl Pts',(70.039603,0.,33.6497470149012));
#558=CARTESIAN_POINT('Ctrl Pts',(70.039603,-33.6497470149012,33.6497470149012));
#559=CARTESIAN_POINT('Ctrl Pts',(70.039603,-33.6497470149012,0.));
#560=CARTESIAN_POINT('Ctrl Pts',(70.039603,-33.6497470149012,-33.6497470149012));
#561=CARTESIAN_POINT('Ctrl Pts',(70.039603,0.,-33.6497470149012));
#562=CARTESIAN_POINT('Ctrl Pts',(70.039603,33.6497470149012,-33.6497470149012));
#563=CARTESIAN_POINT('Ctrl Pts',(70.039603,33.6497470149012,0.));
#564=CARTESIAN_POINT('Ctrl Pts',(70.039603,33.6497470149012,33.6497470149012));
#565=CARTESIAN_POINT('Ctrl Pts',(70.039603,0.,33.6497470149012));
#566=CARTESIAN_POINT('Ctrl Pts',(83.3517481385772,0.,33.6497470149012));
#567=CARTESIAN_POINT('Ctrl Pts',(83.3517481385772,-33.6497470149012,33.6497470149012));
#568=CARTESIAN_POINT('Ctrl Pts',(83.3517481385772,-33.6497470149012,0.));
#569=CARTESIAN_POINT('Ctrl Pts',(83.3517481385772,-33.6497470149012,-33.6497470149012));
#570=CARTESIAN_POINT('Ctrl Pts',(83.3517481385772,0.,-33.6497470149012));
#571=CARTESIAN_POINT('Ctrl Pts',(83.3517481385772,33.6497470149012,-33.6497470149012));
#572=CARTESIAN_POINT('Ctrl Pts',(83.3517481385772,33.6497470149012,0.));
#573=CARTESIAN_POINT('Ctrl Pts',(83.3517481385772,33.6497470149012,33.6497470149012));
#574=CARTESIAN_POINT('Ctrl Pts',(83.3517481385772,0.,33.6497470149012));
#575=CARTESIAN_POINT('Ctrl Pts',(94.8804040074506,0.,26.9936744456126));
#576=CARTESIAN_POINT('Ctrl Pts',(94.8804040074506,-26.9936744456126,26.9936744456126));
#577=CARTESIAN_POINT('Ctrl Pts',(94.8804040074506,-26.9936744456126,0.));
#578=CARTESIAN_POINT('Ctrl Pts',(94.8804040074506,-26.9936744456126,-26.9936744456126));
#579=CARTESIAN_POINT('Ctrl Pts',(94.8804040074506,0.,-26.9936744456126));
#580=CARTESIAN_POINT('Ctrl Pts',(94.8804040074506,26.9936744456126,-26.9936744456126));
#581=CARTESIAN_POINT('Ctrl Pts',(94.8804040074506,26.9936744456126,0.));
#582=CARTESIAN_POINT('Ctrl Pts',(94.8804040074506,26.9936744456126,26.9936744456126));
#583=CARTESIAN_POINT('Ctrl Pts',(94.8804040074506,0.,26.9936744456126));
#584=CARTESIAN_POINT('Origin',(70.039603,1.96333599101445E-15,-16.031855));
#585=UNCERTAINTY_MEASURE_WITH_UNIT(LENGTH_MEASURE(0.01),#589,
'DISTANCE_ACCURACY_VALUE',
'Maximum model space distance between geometric entities at asserted c
onnectivities');
#586=UNCERTAINTY_MEASURE_WITH_UNIT(LENGTH_MEASURE(0.01),#589,
'DISTANCE_ACCURACY_VALUE',
'Maximum model space distance between geometric entities at asserted c
onnectivities');
#587=(
GEOMETRIC_REPRESENTATION_CONTEXT(3)
GLOBAL_UNCERTAINTY_ASSIGNED_CONTEXT((#585))
GLOBAL_UNIT_ASSIGNED_CONTEXT((#589,#591,#592))
REPRESENTATION_CONTEXT('','3D')
);
#588=(
GEOMETRIC_REPRESENTATION_CONTEXT(3)
GLOBAL_UNCERTAINTY_ASSIGNED_CONTEXT((#586))
GLOBAL_UNIT_ASSIGNED_CONTEXT((#589,#591,#592))
REPRESENTATION_CONTEXT('','3D')
);
#589=(
LENGTH_UNIT()
NAMED_UNIT(*)
SI_UNIT(.MILLI.,.METRE.)
);
#590=(
LENGTH_UNIT()
NAMED_UNIT(*)
SI_UNIT($,.METRE.)
);
#591=(
NAMED_UNIT(*)
PLANE_ANGLE_UNIT()
SI_UNIT($,.RADIAN.)
);
#592=(
NAMED_UNIT(*)
SI_UNIT($,.STERADIAN.)
SOLID_ANGLE_UNIT()
);
#593=SHAPE_DEFINITION_REPRESENTATION(#594,#595);
#594=PRODUCT_DEFINITION_SHAPE('',$,#597);
#595=SHAPE_REPRESENTATION('',(#263),#587);
#596=PRODUCT_DEFINITION_CONTEXT('part definition',#601,'design');
#597=PRODUCT_DEFINITION('(Unsaved)','(Unsaved)',#598,#596);
#598=PRODUCT_DEFINITION_FORMATION('',$,#603);
#599=PRODUCT_RELATED_PRODUCT_CATEGORY('(Unsaved)','(Unsaved)',(#603));
#600=APPLICATION_PROTOCOL_DEFINITION('international standard',
'automotive_design',2009,#601);
#601=APPLICATION_CONTEXT(
'Core Data for Automotive Mechanical Design Process');
#602=PRODUCT_CONTEXT('part definition',#601,'mechanical');
#603=PRODUCT('(Unsaved)','(Unsaved)',$,(#602));
#604=PRESENTATION_STYLE_ASSIGNMENT((#605));
#605=SURFACE_STYLE_USAGE(.BOTH.,#606);
#606=SURFACE_SIDE_STYLE('',(#607));
#607=SURFACE_STYLE_FILL_AREA(#608);
#608=FILL_AREA_STYLE('Steel - Satin',(#609));
#609=FILL_AREA_STYLE_COLOUR('Steel - Satin',#610);
#610=COLOUR_RGB('Steel - Satin',0.627450980392157,0.627450980392157,0.627450980392157);
ENDSEC;
END-ISO-10303-21;
