                                                                        S      1
,,25HPhoenix_v6_Final_ANSYS v0,22HPhoenix_v6_Final_ANSYS,7Hunknown,7HunkG      1
nown,32,38,7,99,15,,1.,2,2HMM,1,0.08,15H20250729.145208,0.01,10000.,7HunG      2
known,7Hunknown,11,0,15H20250729.185157;                                G      3
     143       1                                                00000000D      1
     143       0     -35       1       0                               0D      2
     141       2                                                00010000D      3
     141       0               2       0                               0D      4
     126       4                                                00010000D      5
     126       0               2       0                               0D      6
     126       6                                                00010000D      7
     126       0               3       0                               0D      8
     126       9                                                00010000D      9
     126       0               4       0                               0D     10
     126      13                                                00010000D     11
     126       0               4       0                               0D     12
     126      17                                                00010000D     13
     126       0               3       0                               0D     14
     126      20                                                00010000D     15
     126       0               4       0                               0D     16
     126      24                                                00010000D     17
     126       0               2       0                               0D     18
     126      26                                                00010000D     19
     126       0               2       0                               0D     20
     126      28                                                00010000D     21
     126       0               2       0                               0D     22
     126      30                                                00010000D     23
     126       0               2       0                               0D     24
     126      32                                                00010000D     25
     126       0               2       0                               0D     26
     126      34                                                00010000D     27
     126       0               3       0                               0D     28
     126      37                                                00010000D     29
     126       0               2       0                               0D     30
     128      39                                                00010000D     31
     128       0               5       0                               0D     32
     406      44                                                00000000D     33
     406                       1      15                               0D     34
     314      45                                                00000200D     35
     314                       2       0                               0D     36
143,0,31,1,3,0,1,33;                                                   1P      1
141,0,1,31,13,5,1,0,7,2,0,9,2,0,11,2,0,13,2,0,15,1,0,17,2,0,19,        3P      2
1,0,21,1,0,23,1,0,25,1,0,27,2,0,29,2,0;                                3P      3
126,1,1,0,0,1,0,-1.18,-1.18,0.,0.,1.,1.,232.932476,33.938305,0.,       5P      4
232.932476,22.138305,0.,-1.18,0.,0.,0.,0.;                             5P      5
126,2,2,0,0,1,0,0.,0.,0.,1.,1.,1.,1.,1.,1.,188.715957,12.948098,       7P      6
0.,212.047001,19.203043,0.,232.932476,22.138305,0.,0.,1.,0.,0.,        7P      7
0.;                                                                    7P      8
126,2,2,0,0,0,0,0.,0.,0.,0.261935718855032,0.261935718855032,          9P      9
0.261935718855032,1.,0.991435961683646,1.,187.451616,12.781557,        9P     10
0.,188.094755022211,12.781557,0.,188.715956914678,                     9P     11
12.9480983182541,0.,0.,0.261935718855032,0.,0.,0.;                     9P     12
126,2,2,0,0,0,0,0.,0.,0.,0.523598757182181,0.523598757182181,         11P     13
0.523598757182181,1.,0.965925828672267,1.,177.865449,15.350162,       11P     14
0.,182.31440461303,12.7815563884476,0.,187.451616,                    11P     15
12.7815563884476,0.,0.,0.523598757182181,0.,0.,0.;                    11P     16
126,1,1,0,0,1,0,0.,0.,1.59581289188381,1.59581289188381,1.,1.,        13P     17
164.045304,23.3292265297073,0.,177.865449,15.350162,0.,0.,            13P     18
1.59581289188381,0.,0.,0.;                                            13P     19
126,2,2,0,0,0,0,0.,0.,0.,0.523598775598299,0.523598775598299,         15P     20
0.523598775598299,1.,0.965925826289072,1.,164.045304,                 15P     21
23.3292265297073,0.,150.225158940585,31.308291,0.,134.26703,          15P     22
31.308291,0.,0.,0.523598775598299,0.,0.,0.;                           15P     23
126,1,1,0,0,1,0,0.,0.,13.426703,13.426703,1.,1.,0.,31.308291,0.,      17P     24
134.26703,31.308291,0.,0.,13.426703,0.,0.,0.;                         17P     25
126,1,1,0,0,1,0,0.,0.,3.1308291,3.1308291,1.,1.,0.,31.308291,0.,      19P     26
0.,0.,0.,0.,3.1308291,0.,0.,0.;                                       19P     27
126,1,1,0,0,1,0,0.,0.,60.,60.,1.,1.,0.,0.,0.,600.,0.,0.,0.,60.,       21P     28
0.,0.,0.;                                                             21P     29
126,1,1,0,0,1,0,0.,0.,12.,12.,1.,1.,600.,0.,0.,600.,120.,0.,0.,       23P     30
12.,0.,0.,0.;                                                         23P     31
126,1,1,0,0,1,0,0.,0.,60.,60.,1.,1.,600.,120.,0.,0.,120.,0.,0.,       25P     32
60.,0.,0.,0.;                                                         25P     33
126,1,1,0,0,1,0,0.,0.,8.6061695,8.6061695,1.,1.,                      27P     34
7.39557098644699D-31,33.938305,0.,0.,120.,0.,0.,8.6061695,0.,0.,      27P     35
0.;                                                                   27P     36
126,1,1,0,0,1,0,0.,0.,23.2932476,23.2932476,1.,1.,232.932476,         29P     37
33.938305,0.,0.,33.938305,0.,0.,23.2932476,0.,0.,0.;                  29P     38
128,1,1,1,1,0,0,1,0,0,-41.6476238,-41.6476238,18.3543762,             31P     39
18.3543762,-6.001,-6.001,6.001,6.001,1.,1.,1.,1.,                     31P     40
-0.00999999999997669,-0.0100000000000033,0.,600.01,                   31P     41
-0.0100000000000033,0.,-0.00999999999997669,120.01,0.,600.01,         31P     42
120.01,0.,-41.6476238,18.3543762,-6.001,6.001;                        31P     43
406,1,5HBody2;                                                        33P     44
314,62.7450980392157,62.7450980392157,62.7450980392157,13HSteel       35P     45
- Satin;                                                              35P     46
S      1G      3D     36P     46                                        T      1
