ISO-10303-21;
HEADER;
/* Generated by software containing ST-Developer
 * from STEP Tools, Inc. (www.steptools.com) 
 */

FILE_DESCRIPTION(
/* description */ (''),
/* implementation_level */ '2;1');

FILE_NAME(
/* name */ 
'Phoenix_v6 (1m L @ 1kN + 1.5MPa) Contraction Ratio - 6 OF - 3.step',
/* time_stamp */ '2025-06-26T21:07:16-04:00',
/* author */ (''),
/* organization */ (''),
/* preprocessor_version */ 'ST-DEVELOPER v20.1',
/* originating_system */ 'Autodesk Translation Framework v14.10.0.0',
/* authorisation */ '');

FILE_SCHEMA (('AUTOMOTIVE_DESIGN { 1 0 10303 214 3 1 1 }'));
ENDSEC;

DATA;
#10=MECHANICAL_DESIGN_GEOMETRIC_PRESENTATION_REPRESENTATION('',(#13),#877);
#11=SHAPE_REPRESENTATION_RELATIONSHIP('SRR','None',#884,#12);
#12=ADVANCED_BREP_SHAPE_REPRESENTATION('',(#14),#876);
#13=STYLED_ITEM('',(#893),#14);
#14=MANIFOLD_SOLID_BREP('Water Cooled',#425);
#15=CONICAL_SURFACE('',#472,19.3396942648537,0.523598780684225);
#16=CONICAL_SURFACE('',#487,24.3396942648537,0.523598780684224);
#17=TOROIDAL_SURFACE('',#465,17.664111,4.882554);
#18=TOROIDAL_SURFACE('',#468,31.953891,19.1723346115524);
#19=TOROIDAL_SURFACE('',#490,36.953891,19.1723346115524);
#20=TOROIDAL_SURFACE('',#493,22.664111,4.882554);
#21=B_SPLINE_CURVE_WITH_KNOTS('',2,(#720,#721,#722),.UNSPECIFIED.,.F.,.F.,
(3,3),(0.,1.),.UNSPECIFIED.);
#22=B_SPLINE_CURVE_WITH_KNOTS('',2,(#862,#863,#864),.UNSPECIFIED.,.F.,.F.,
(3,3),(0.,0.763863778488704),.UNSPECIFIED.);
#23=(
BOUNDED_SURFACE()
B_SPLINE_SURFACE(2,2,((#691,#692,#693,#694,#695,#696,#697,#698,#699),(#700,
#701,#702,#703,#704,#705,#706,#707,#708),(#709,#710,#711,#712,#713,#714,
#715,#716,#717)),.UNSPECIFIED.,.F.,.T.,.F.)
B_SPLINE_SURFACE_WITH_KNOTS((3,3),(3,2,2,2,3),(0.,1.),(0.,1.5707963267949,
3.14159265358979,4.71238898038469,6.28318530717959),.UNSPECIFIED.)
GEOMETRIC_REPRESENTATION_ITEM()
RATIONAL_B_SPLINE_SURFACE(((1.,0.707106781186548,1.,0.707106781186548,1.,
0.707106781186548,1.,0.707106781186548,1.),(1.,0.707106781186548,1.,0.707106781186548,
1.,0.707106781186548,1.,0.707106781186548,1.),(1.,0.707106781186548,1.,
0.707106781186548,1.,0.707106781186548,1.,0.707106781186548,1.)))
REPRESENTATION_ITEM('')
SURFACE()
);
#24=(
BOUNDED_SURFACE()
B_SPLINE_SURFACE(2,2,((#743,#744,#745,#746,#747,#748,#749,#750,#751),(#752,
#753,#754,#755,#756,#757,#758,#759,#760),(#761,#762,#763,#764,#765,#766,
#767,#768,#769)),.UNSPECIFIED.,.F.,.T.,.F.)
B_SPLINE_SURFACE_WITH_KNOTS((3,3),(3,2,2,2,3),(0.,0.523598775598299),(-3.14159265358979,
-1.5707963267949,0.,1.5707963267949,3.14159265358979),.UNSPECIFIED.)
GEOMETRIC_REPRESENTATION_ITEM()
RATIONAL_B_SPLINE_SURFACE(((1.,0.707106781186548,1.,0.707106781186548,1.,
0.707106781186548,1.,0.707106781186548,1.),(0.965925826289072,0.683012701892222,
0.965925826289072,0.683012701892222,0.965925826289072,0.683012701892222,
0.965925826289072,0.683012701892222,0.965925826289072),(1.,0.707106781186548,
1.,0.707106781186548,1.,0.707106781186548,1.,0.707106781186548,1.)))
REPRESENTATION_ITEM('')
SURFACE()
);
#25=(
BOUNDED_SURFACE()
B_SPLINE_SURFACE(2,2,((#786,#787,#788,#789,#790,#791,#792,#793,#794),(#795,
#796,#797,#798,#799,#800,#801,#802,#803),(#804,#805,#806,#807,#808,#809,
#810,#811,#812)),.UNSPECIFIED.,.F.,.T.,.F.)
B_SPLINE_SURFACE_WITH_KNOTS((3,3),(3,2,2,2,3),(0.,0.523598775598299),(-3.14159265358979,
-1.5707963267949,0.,1.5707963267949,3.14159265358979),.UNSPECIFIED.)
GEOMETRIC_REPRESENTATION_ITEM()
RATIONAL_B_SPLINE_SURFACE(((1.,0.707106781186548,1.,0.707106781186548,1.,
0.707106781186548,1.,0.707106781186548,1.),(0.965925826289072,0.683012701892222,
0.965925826289072,0.683012701892222,0.965925826289072,0.683012701892222,
0.965925826289072,0.683012701892222,0.965925826289072),(1.,0.707106781186548,
1.,0.707106781186548,1.,0.707106781186548,1.,0.707106781186548,1.)))
REPRESENTATION_ITEM('')
SURFACE()
);
#26=(
BOUNDED_SURFACE()
B_SPLINE_SURFACE(2,2,((#834,#835,#836,#837,#838,#839,#840,#841,#842),(#843,
#844,#845,#846,#847,#848,#849,#850,#851),(#852,#853,#854,#855,#856,#857,
#858,#859,#860)),.UNSPECIFIED.,.F.,.T.,.F.)
B_SPLINE_SURFACE_WITH_KNOTS((3,3),(3,2,2,2,3),(-0.763863778488704,0.),(0.,
1.5707963267949,3.14159265358979,4.71238898038469,6.28318530717959),
 .UNSPECIFIED.)
GEOMETRIC_REPRESENTATION_ITEM()
RATIONAL_B_SPLINE_SURFACE(((1.,0.707106781186548,1.,0.707106781186548,1.,
0.707106781186548,1.,0.707106781186548,1.),(1.,0.707106781186548,1.,0.707106781186548,
1.,0.707106781186548,1.,0.707106781186548,1.),(1.,0.707106781186548,1.,
0.707106781186548,1.,0.707106781186548,1.,0.707106781186548,1.)))
REPRESENTATION_ITEM('')
SURFACE()
);
#27=FACE_BOUND('',#79,.T.);
#28=FACE_BOUND('',#87,.T.);
#29=FACE_BOUND('',#95,.T.);
#30=FACE_BOUND('',#96,.T.);
#31=FACE_BOUND('',#97,.T.);
#32=FACE_BOUND('',#98,.T.);
#33=FACE_BOUND('',#99,.T.);
#34=FACE_BOUND('',#100,.T.);
#35=FACE_BOUND('',#101,.T.);
#36=FACE_BOUND('',#104,.T.);
#37=FACE_BOUND('',#105,.T.);
#38=FACE_BOUND('',#106,.T.);
#39=FACE_BOUND('',#107,.T.);
#40=FACE_BOUND('',#108,.T.);
#41=FACE_BOUND('',#109,.T.);
#42=FACE_BOUND('',#110,.T.);
#43=PLANE('',#460);
#44=PLANE('',#480);
#45=PLANE('',#498);
#46=PLANE('',#502);
#47=FACE_OUTER_BOUND('',#71,.T.);
#48=FACE_OUTER_BOUND('',#72,.T.);
#49=FACE_OUTER_BOUND('',#73,.T.);
#50=FACE_OUTER_BOUND('',#74,.T.);
#51=FACE_OUTER_BOUND('',#75,.T.);
#52=FACE_OUTER_BOUND('',#76,.T.);
#53=FACE_OUTER_BOUND('',#77,.T.);
#54=FACE_OUTER_BOUND('',#78,.T.);
#55=FACE_OUTER_BOUND('',#80,.T.);
#56=FACE_OUTER_BOUND('',#81,.T.);
#57=FACE_OUTER_BOUND('',#82,.T.);
#58=FACE_OUTER_BOUND('',#83,.T.);
#59=FACE_OUTER_BOUND('',#84,.T.);
#60=FACE_OUTER_BOUND('',#85,.T.);
#61=FACE_OUTER_BOUND('',#86,.T.);
#62=FACE_OUTER_BOUND('',#88,.T.);
#63=FACE_OUTER_BOUND('',#89,.T.);
#64=FACE_OUTER_BOUND('',#90,.T.);
#65=FACE_OUTER_BOUND('',#91,.T.);
#66=FACE_OUTER_BOUND('',#92,.T.);
#67=FACE_OUTER_BOUND('',#93,.T.);
#68=FACE_OUTER_BOUND('',#94,.T.);
#69=FACE_OUTER_BOUND('',#102,.T.);
#70=FACE_OUTER_BOUND('',#103,.T.);
#71=EDGE_LOOP('',(#275,#276,#277,#278));
#72=EDGE_LOOP('',(#279,#280,#281,#282));
#73=EDGE_LOOP('',(#283,#284,#285,#286));
#74=EDGE_LOOP('',(#287,#288,#289,#290));
#75=EDGE_LOOP('',(#291,#292,#293,#294));
#76=EDGE_LOOP('',(#295,#296,#297,#298));
#77=EDGE_LOOP('',(#299,#300,#301,#302));
#78=EDGE_LOOP('',(#303));
#79=EDGE_LOOP('',(#304));
#80=EDGE_LOOP('',(#305,#306,#307,#308,#309));
#81=EDGE_LOOP('',(#310,#311,#312,#313,#314));
#82=EDGE_LOOP('',(#315,#316,#317,#318,#319));
#83=EDGE_LOOP('',(#320,#321,#322,#323,#324,#325));
#84=EDGE_LOOP('',(#326,#327,#328,#329,#330,#331));
#85=EDGE_LOOP('',(#332,#333,#334,#335,#336));
#86=EDGE_LOOP('',(#337));
#87=EDGE_LOOP('',(#338));
#88=EDGE_LOOP('',(#339,#340,#341,#342,#343));
#89=EDGE_LOOP('',(#344,#345,#346,#347,#348,#349));
#90=EDGE_LOOP('',(#350,#351,#352,#353,#354,#355));
#91=EDGE_LOOP('',(#356,#357,#358,#359,#360));
#92=EDGE_LOOP('',(#361,#362,#363,#364,#365));
#93=EDGE_LOOP('',(#366,#367,#368,#369,#370));
#94=EDGE_LOOP('',(#371));
#95=EDGE_LOOP('',(#372));
#96=EDGE_LOOP('',(#373));
#97=EDGE_LOOP('',(#374));
#98=EDGE_LOOP('',(#375));
#99=EDGE_LOOP('',(#376));
#100=EDGE_LOOP('',(#377));
#101=EDGE_LOOP('',(#378));
#102=EDGE_LOOP('',(#379,#380,#381,#382));
#103=EDGE_LOOP('',(#383));
#104=EDGE_LOOP('',(#384));
#105=EDGE_LOOP('',(#385));
#106=EDGE_LOOP('',(#386));
#107=EDGE_LOOP('',(#387));
#108=EDGE_LOOP('',(#388));
#109=EDGE_LOOP('',(#389));
#110=EDGE_LOOP('',(#390));
#111=LINE('',#650,#123);
#112=LINE('',#656,#124);
#113=LINE('',#662,#125);
#114=LINE('',#668,#126);
#115=LINE('',#674,#127);
#116=LINE('',#680,#128);
#117=LINE('',#686,#129);
#118=LINE('',#739,#130);
#119=LINE('',#777,#131);
#120=LINE('',#784,#132);
#121=LINE('',#822,#133);
#122=LINE('',#872,#134);
#123=VECTOR('',#509,5.);
#124=VECTOR('',#516,5.);
#125=VECTOR('',#523,5.);
#126=VECTOR('',#530,5.);
#127=VECTOR('',#537,5.);
#128=VECTOR('',#544,5.);
#129=VECTOR('',#551,33.808290965622);
#130=VECTOR('',#580,19.3396942648537);
#131=VECTOR('',#593,31.308291);
#132=VECTOR('',#602,36.308291);
#133=VECTOR('',#615,24.3396942648537);
#134=VECTOR('',#642,65.5669550742065);
#135=CIRCLE('',#440,5.);
#136=CIRCLE('',#441,5.);
#137=CIRCLE('',#443,5.);
#138=CIRCLE('',#444,5.);
#139=CIRCLE('',#446,5.);
#140=CIRCLE('',#447,5.);
#141=CIRCLE('',#449,5.);
#142=CIRCLE('',#450,5.);
#143=CIRCLE('',#452,5.);
#144=CIRCLE('',#453,5.);
#145=CIRCLE('',#455,5.);
#146=CIRCLE('',#456,5.);
#147=CIRCLE('',#458,33.808290965622);
#148=CIRCLE('',#459,33.808290965622);
#149=CIRCLE('',#461,36.308291);
#150=CIRCLE('',#462,22.138305);
#151=CIRCLE('',#463,12.948098);
#152=CIRCLE('',#464,12.948098);
#153=CIRCLE('',#466,12.781557);
#154=CIRCLE('',#467,4.882554);
#155=CIRCLE('',#469,15.350162);
#156=CIRCLE('',#470,15.350162);
#157=CIRCLE('',#471,19.1723346115524);
#158=CIRCLE('',#473,23.3292265297073);
#159=CIRCLE('',#474,23.3292265297073);
#160=CIRCLE('',#475,59.556548);
#161=CIRCLE('',#476,31.308291);
#162=CIRCLE('',#477,31.308291);
#163=CIRCLE('',#479,31.308291);
#164=CIRCLE('',#482,36.308291);
#165=CIRCLE('',#483,36.308291);
#166=CIRCLE('',#484,28.3292265297073);
#167=CIRCLE('',#485,28.3292265297073);
#168=CIRCLE('',#486,59.556548);
#169=CIRCLE('',#488,20.350162);
#170=CIRCLE('',#489,20.350162);
#171=CIRCLE('',#491,19.1723346115524);
#172=CIRCLE('',#492,17.7815563884476);
#173=CIRCLE('',#494,4.882554);
#174=CIRCLE('',#495,17.948098);
#175=CIRCLE('',#496,17.948098);
#176=CIRCLE('',#497,25.5669550742065);
#177=CIRCLE('',#499,65.5669550742065);
#178=CIRCLE('',#501,65.5669550742065);
#179=VERTEX_POINT('',#647);
#180=VERTEX_POINT('',#649);
#181=VERTEX_POINT('',#653);
#182=VERTEX_POINT('',#655);
#183=VERTEX_POINT('',#659);
#184=VERTEX_POINT('',#661);
#185=VERTEX_POINT('',#665);
#186=VERTEX_POINT('',#667);
#187=VERTEX_POINT('',#671);
#188=VERTEX_POINT('',#673);
#189=VERTEX_POINT('',#677);
#190=VERTEX_POINT('',#679);
#191=VERTEX_POINT('',#683);
#192=VERTEX_POINT('',#685);
#193=VERTEX_POINT('',#689);
#194=VERTEX_POINT('',#718);
#195=VERTEX_POINT('',#719);
#196=VERTEX_POINT('',#724);
#197=VERTEX_POINT('',#728);
#198=VERTEX_POINT('',#732);
#199=VERTEX_POINT('',#733);
#200=VERTEX_POINT('',#738);
#201=VERTEX_POINT('',#740);
#202=VERTEX_POINT('',#770);
#203=VERTEX_POINT('',#772);
#204=VERTEX_POINT('',#776);
#205=VERTEX_POINT('',#781);
#206=VERTEX_POINT('',#782);
#207=VERTEX_POINT('',#813);
#208=VERTEX_POINT('',#814);
#209=VERTEX_POINT('',#819);
#210=VERTEX_POINT('',#820);
#211=VERTEX_POINT('',#825);
#212=VERTEX_POINT('',#829);
#213=VERTEX_POINT('',#831);
#214=VERTEX_POINT('',#861);
#215=VERTEX_POINT('',#867);
#216=VERTEX_POINT('',#870);
#217=EDGE_CURVE('',#179,#179,#135,.T.);
#218=EDGE_CURVE('',#179,#180,#111,.T.);
#219=EDGE_CURVE('',#180,#180,#136,.T.);
#220=EDGE_CURVE('',#181,#181,#137,.T.);
#221=EDGE_CURVE('',#181,#182,#112,.T.);
#222=EDGE_CURVE('',#182,#182,#138,.T.);
#223=EDGE_CURVE('',#183,#183,#139,.T.);
#224=EDGE_CURVE('',#183,#184,#113,.T.);
#225=EDGE_CURVE('',#184,#184,#140,.T.);
#226=EDGE_CURVE('',#185,#185,#141,.T.);
#227=EDGE_CURVE('',#185,#186,#114,.T.);
#228=EDGE_CURVE('',#186,#186,#142,.T.);
#229=EDGE_CURVE('',#187,#187,#143,.T.);
#230=EDGE_CURVE('',#187,#188,#115,.T.);
#231=EDGE_CURVE('',#188,#188,#144,.T.);
#232=EDGE_CURVE('',#189,#189,#145,.T.);
#233=EDGE_CURVE('',#189,#190,#116,.T.);
#234=EDGE_CURVE('',#190,#190,#146,.T.);
#235=EDGE_CURVE('',#191,#191,#147,.T.);
#236=EDGE_CURVE('',#191,#192,#117,.T.);
#237=EDGE_CURVE('',#192,#192,#148,.T.);
#238=EDGE_CURVE('',#193,#193,#149,.T.);
#239=EDGE_CURVE('',#194,#195,#21,.T.);
#240=EDGE_CURVE('',#195,#195,#150,.T.);
#241=EDGE_CURVE('',#196,#194,#151,.T.);
#242=EDGE_CURVE('',#194,#196,#152,.T.);
#243=EDGE_CURVE('',#197,#197,#153,.T.);
#244=EDGE_CURVE('',#197,#196,#154,.T.);
#245=EDGE_CURVE('',#198,#199,#155,.T.);
#246=EDGE_CURVE('',#199,#198,#156,.T.);
#247=EDGE_CURVE('',#199,#197,#157,.T.);
#248=EDGE_CURVE('',#198,#200,#118,.T.);
#249=EDGE_CURVE('',#201,#200,#158,.T.);
#250=EDGE_CURVE('',#200,#201,#159,.T.);
#251=EDGE_CURVE('',#201,#202,#160,.T.);
#252=EDGE_CURVE('',#203,#202,#161,.T.);
#253=EDGE_CURVE('',#202,#203,#162,.T.);
#254=EDGE_CURVE('',#203,#204,#119,.T.);
#255=EDGE_CURVE('',#204,#204,#163,.T.);
#256=EDGE_CURVE('',#205,#206,#164,.T.);
#257=EDGE_CURVE('',#205,#193,#120,.T.);
#258=EDGE_CURVE('',#206,#205,#165,.T.);
#259=EDGE_CURVE('',#207,#208,#166,.T.);
#260=EDGE_CURVE('',#208,#207,#167,.T.);
#261=EDGE_CURVE('',#208,#206,#168,.T.);
#262=EDGE_CURVE('',#209,#210,#169,.T.);
#263=EDGE_CURVE('',#209,#207,#121,.T.);
#264=EDGE_CURVE('',#210,#209,#170,.T.);
#265=EDGE_CURVE('',#210,#211,#171,.T.);
#266=EDGE_CURVE('',#211,#211,#172,.T.);
#267=EDGE_CURVE('',#211,#212,#173,.T.);
#268=EDGE_CURVE('',#213,#212,#174,.T.);
#269=EDGE_CURVE('',#212,#213,#175,.T.);
#270=EDGE_CURVE('',#213,#214,#22,.T.);
#271=EDGE_CURVE('',#214,#214,#176,.T.);
#272=EDGE_CURVE('',#215,#215,#177,.T.);
#273=EDGE_CURVE('',#216,#216,#178,.T.);
#274=EDGE_CURVE('',#216,#215,#122,.T.);
#275=ORIENTED_EDGE('',*,*,#217,.F.);
#276=ORIENTED_EDGE('',*,*,#218,.T.);
#277=ORIENTED_EDGE('',*,*,#219,.F.);
#278=ORIENTED_EDGE('',*,*,#218,.F.);
#279=ORIENTED_EDGE('',*,*,#220,.F.);
#280=ORIENTED_EDGE('',*,*,#221,.T.);
#281=ORIENTED_EDGE('',*,*,#222,.F.);
#282=ORIENTED_EDGE('',*,*,#221,.F.);
#283=ORIENTED_EDGE('',*,*,#223,.F.);
#284=ORIENTED_EDGE('',*,*,#224,.T.);
#285=ORIENTED_EDGE('',*,*,#225,.F.);
#286=ORIENTED_EDGE('',*,*,#224,.F.);
#287=ORIENTED_EDGE('',*,*,#226,.F.);
#288=ORIENTED_EDGE('',*,*,#227,.T.);
#289=ORIENTED_EDGE('',*,*,#228,.F.);
#290=ORIENTED_EDGE('',*,*,#227,.F.);
#291=ORIENTED_EDGE('',*,*,#229,.F.);
#292=ORIENTED_EDGE('',*,*,#230,.T.);
#293=ORIENTED_EDGE('',*,*,#231,.F.);
#294=ORIENTED_EDGE('',*,*,#230,.F.);
#295=ORIENTED_EDGE('',*,*,#232,.F.);
#296=ORIENTED_EDGE('',*,*,#233,.T.);
#297=ORIENTED_EDGE('',*,*,#234,.F.);
#298=ORIENTED_EDGE('',*,*,#233,.F.);
#299=ORIENTED_EDGE('',*,*,#235,.F.);
#300=ORIENTED_EDGE('',*,*,#236,.T.);
#301=ORIENTED_EDGE('',*,*,#237,.F.);
#302=ORIENTED_EDGE('',*,*,#236,.F.);
#303=ORIENTED_EDGE('',*,*,#238,.T.);
#304=ORIENTED_EDGE('',*,*,#235,.T.);
#305=ORIENTED_EDGE('',*,*,#239,.T.);
#306=ORIENTED_EDGE('',*,*,#240,.T.);
#307=ORIENTED_EDGE('',*,*,#239,.F.);
#308=ORIENTED_EDGE('',*,*,#241,.F.);
#309=ORIENTED_EDGE('',*,*,#242,.F.);
#310=ORIENTED_EDGE('',*,*,#243,.F.);
#311=ORIENTED_EDGE('',*,*,#244,.T.);
#312=ORIENTED_EDGE('',*,*,#241,.T.);
#313=ORIENTED_EDGE('',*,*,#242,.T.);
#314=ORIENTED_EDGE('',*,*,#244,.F.);
#315=ORIENTED_EDGE('',*,*,#245,.F.);
#316=ORIENTED_EDGE('',*,*,#246,.F.);
#317=ORIENTED_EDGE('',*,*,#247,.T.);
#318=ORIENTED_EDGE('',*,*,#243,.T.);
#319=ORIENTED_EDGE('',*,*,#247,.F.);
#320=ORIENTED_EDGE('',*,*,#245,.T.);
#321=ORIENTED_EDGE('',*,*,#246,.T.);
#322=ORIENTED_EDGE('',*,*,#248,.T.);
#323=ORIENTED_EDGE('',*,*,#249,.F.);
#324=ORIENTED_EDGE('',*,*,#250,.F.);
#325=ORIENTED_EDGE('',*,*,#248,.F.);
#326=ORIENTED_EDGE('',*,*,#250,.T.);
#327=ORIENTED_EDGE('',*,*,#251,.T.);
#328=ORIENTED_EDGE('',*,*,#252,.F.);
#329=ORIENTED_EDGE('',*,*,#253,.F.);
#330=ORIENTED_EDGE('',*,*,#251,.F.);
#331=ORIENTED_EDGE('',*,*,#249,.T.);
#332=ORIENTED_EDGE('',*,*,#252,.T.);
#333=ORIENTED_EDGE('',*,*,#253,.T.);
#334=ORIENTED_EDGE('',*,*,#254,.T.);
#335=ORIENTED_EDGE('',*,*,#255,.F.);
#336=ORIENTED_EDGE('',*,*,#254,.F.);
#337=ORIENTED_EDGE('',*,*,#237,.T.);
#338=ORIENTED_EDGE('',*,*,#255,.T.);
#339=ORIENTED_EDGE('',*,*,#256,.F.);
#340=ORIENTED_EDGE('',*,*,#257,.T.);
#341=ORIENTED_EDGE('',*,*,#238,.F.);
#342=ORIENTED_EDGE('',*,*,#257,.F.);
#343=ORIENTED_EDGE('',*,*,#258,.F.);
#344=ORIENTED_EDGE('',*,*,#259,.F.);
#345=ORIENTED_EDGE('',*,*,#260,.F.);
#346=ORIENTED_EDGE('',*,*,#261,.T.);
#347=ORIENTED_EDGE('',*,*,#258,.T.);
#348=ORIENTED_EDGE('',*,*,#256,.T.);
#349=ORIENTED_EDGE('',*,*,#261,.F.);
#350=ORIENTED_EDGE('',*,*,#262,.F.);
#351=ORIENTED_EDGE('',*,*,#263,.T.);
#352=ORIENTED_EDGE('',*,*,#259,.T.);
#353=ORIENTED_EDGE('',*,*,#260,.T.);
#354=ORIENTED_EDGE('',*,*,#263,.F.);
#355=ORIENTED_EDGE('',*,*,#264,.F.);
#356=ORIENTED_EDGE('',*,*,#262,.T.);
#357=ORIENTED_EDGE('',*,*,#265,.T.);
#358=ORIENTED_EDGE('',*,*,#266,.F.);
#359=ORIENTED_EDGE('',*,*,#265,.F.);
#360=ORIENTED_EDGE('',*,*,#264,.T.);
#361=ORIENTED_EDGE('',*,*,#266,.T.);
#362=ORIENTED_EDGE('',*,*,#267,.T.);
#363=ORIENTED_EDGE('',*,*,#268,.F.);
#364=ORIENTED_EDGE('',*,*,#269,.F.);
#365=ORIENTED_EDGE('',*,*,#267,.F.);
#366=ORIENTED_EDGE('',*,*,#270,.F.);
#367=ORIENTED_EDGE('',*,*,#268,.T.);
#368=ORIENTED_EDGE('',*,*,#269,.T.);
#369=ORIENTED_EDGE('',*,*,#270,.T.);
#370=ORIENTED_EDGE('',*,*,#271,.F.);
#371=ORIENTED_EDGE('',*,*,#272,.F.);
#372=ORIENTED_EDGE('',*,*,#219,.T.);
#373=ORIENTED_EDGE('',*,*,#222,.T.);
#374=ORIENTED_EDGE('',*,*,#225,.T.);
#375=ORIENTED_EDGE('',*,*,#228,.T.);
#376=ORIENTED_EDGE('',*,*,#231,.T.);
#377=ORIENTED_EDGE('',*,*,#234,.T.);
#378=ORIENTED_EDGE('',*,*,#271,.T.);
#379=ORIENTED_EDGE('',*,*,#273,.F.);
#380=ORIENTED_EDGE('',*,*,#274,.T.);
#381=ORIENTED_EDGE('',*,*,#272,.T.);
#382=ORIENTED_EDGE('',*,*,#274,.F.);
#383=ORIENTED_EDGE('',*,*,#273,.T.);
#384=ORIENTED_EDGE('',*,*,#217,.T.);
#385=ORIENTED_EDGE('',*,*,#220,.T.);
#386=ORIENTED_EDGE('',*,*,#223,.T.);
#387=ORIENTED_EDGE('',*,*,#226,.T.);
#388=ORIENTED_EDGE('',*,*,#229,.T.);
#389=ORIENTED_EDGE('',*,*,#232,.T.);
#390=ORIENTED_EDGE('',*,*,#240,.F.);
#391=CYLINDRICAL_SURFACE('',#439,5.);
#392=CYLINDRICAL_SURFACE('',#442,5.);
#393=CYLINDRICAL_SURFACE('',#445,5.);
#394=CYLINDRICAL_SURFACE('',#448,5.);
#395=CYLINDRICAL_SURFACE('',#451,5.);
#396=CYLINDRICAL_SURFACE('',#454,5.);
#397=CYLINDRICAL_SURFACE('',#457,33.808290965622);
#398=CYLINDRICAL_SURFACE('',#478,31.308291);
#399=CYLINDRICAL_SURFACE('',#481,36.308291);
#400=CYLINDRICAL_SURFACE('',#500,65.5669550742065);
#401=ADVANCED_FACE('',(#47),#391,.F.);
#402=ADVANCED_FACE('',(#48),#392,.F.);
#403=ADVANCED_FACE('',(#49),#393,.F.);
#404=ADVANCED_FACE('',(#50),#394,.F.);
#405=ADVANCED_FACE('',(#51),#395,.F.);
#406=ADVANCED_FACE('',(#52),#396,.F.);
#407=ADVANCED_FACE('',(#53),#397,.F.);
#408=ADVANCED_FACE('',(#54,#27),#43,.T.);
#409=ADVANCED_FACE('',(#55),#23,.T.);
#410=ADVANCED_FACE('',(#56),#17,.T.);
#411=ADVANCED_FACE('',(#57),#18,.T.);
#412=ADVANCED_FACE('',(#58),#15,.F.);
#413=ADVANCED_FACE('',(#59),#24,.T.);
#414=ADVANCED_FACE('',(#60),#398,.F.);
#415=ADVANCED_FACE('',(#61,#28),#44,.T.);
#416=ADVANCED_FACE('',(#62),#399,.T.);
#417=ADVANCED_FACE('',(#63),#25,.F.);
#418=ADVANCED_FACE('',(#64),#16,.T.);
#419=ADVANCED_FACE('',(#65),#19,.F.);
#420=ADVANCED_FACE('',(#66),#20,.F.);
#421=ADVANCED_FACE('',(#67),#26,.T.);
#422=ADVANCED_FACE('',(#68,#29,#30,#31,#32,#33,#34,#35),#45,.T.);
#423=ADVANCED_FACE('',(#69),#400,.T.);
#424=ADVANCED_FACE('',(#70,#36,#37,#38,#39,#40,#41,#42),#46,.T.);
#425=CLOSED_SHELL('',(#401,#402,#403,#404,#405,#406,#407,#408,#409,#410,
#411,#412,#413,#414,#415,#416,#417,#418,#419,#420,#421,#422,#423,#424));
#426=DERIVED_UNIT_ELEMENT(#428,1.);
#427=DERIVED_UNIT_ELEMENT(#879,-3.);
#428=(
MASS_UNIT()
NAMED_UNIT(*)
SI_UNIT(.KILO.,.GRAM.)
);
#429=DERIVED_UNIT((#426,#427));
#430=MEASURE_REPRESENTATION_ITEM('density measure',
POSITIVE_RATIO_MEASURE(7850.),#429);
#431=PROPERTY_DEFINITION_REPRESENTATION(#436,#433);
#432=PROPERTY_DEFINITION_REPRESENTATION(#437,#434);
#433=REPRESENTATION('material name',(#435),#876);
#434=REPRESENTATION('density',(#430),#876);
#435=DESCRIPTIVE_REPRESENTATION_ITEM('Steel','Steel');
#436=PROPERTY_DEFINITION('material property','material name',#886);
#437=PROPERTY_DEFINITION('material property','density of part',#886);
#438=AXIS2_PLACEMENT_3D('',#645,#503,#504);
#439=AXIS2_PLACEMENT_3D('',#646,#505,#506);
#440=AXIS2_PLACEMENT_3D('',#648,#507,#508);
#441=AXIS2_PLACEMENT_3D('',#651,#510,#511);
#442=AXIS2_PLACEMENT_3D('',#652,#512,#513);
#443=AXIS2_PLACEMENT_3D('',#654,#514,#515);
#444=AXIS2_PLACEMENT_3D('',#657,#517,#518);
#445=AXIS2_PLACEMENT_3D('',#658,#519,#520);
#446=AXIS2_PLACEMENT_3D('',#660,#521,#522);
#447=AXIS2_PLACEMENT_3D('',#663,#524,#525);
#448=AXIS2_PLACEMENT_3D('',#664,#526,#527);
#449=AXIS2_PLACEMENT_3D('',#666,#528,#529);
#450=AXIS2_PLACEMENT_3D('',#669,#531,#532);
#451=AXIS2_PLACEMENT_3D('',#670,#533,#534);
#452=AXIS2_PLACEMENT_3D('',#672,#535,#536);
#453=AXIS2_PLACEMENT_3D('',#675,#538,#539);
#454=AXIS2_PLACEMENT_3D('',#676,#540,#541);
#455=AXIS2_PLACEMENT_3D('',#678,#542,#543);
#456=AXIS2_PLACEMENT_3D('',#681,#545,#546);
#457=AXIS2_PLACEMENT_3D('',#682,#547,#548);
#458=AXIS2_PLACEMENT_3D('',#684,#549,#550);
#459=AXIS2_PLACEMENT_3D('',#687,#552,#553);
#460=AXIS2_PLACEMENT_3D('',#688,#554,#555);
#461=AXIS2_PLACEMENT_3D('',#690,#556,#557);
#462=AXIS2_PLACEMENT_3D('',#723,#558,#559);
#463=AXIS2_PLACEMENT_3D('',#725,#560,#561);
#464=AXIS2_PLACEMENT_3D('',#726,#562,#563);
#465=AXIS2_PLACEMENT_3D('',#727,#564,#565);
#466=AXIS2_PLACEMENT_3D('',#729,#566,#567);
#467=AXIS2_PLACEMENT_3D('',#730,#568,#569);
#468=AXIS2_PLACEMENT_3D('',#731,#570,#571);
#469=AXIS2_PLACEMENT_3D('',#734,#572,#573);
#470=AXIS2_PLACEMENT_3D('',#735,#574,#575);
#471=AXIS2_PLACEMENT_3D('',#736,#576,#577);
#472=AXIS2_PLACEMENT_3D('',#737,#578,#579);
#473=AXIS2_PLACEMENT_3D('',#741,#581,#582);
#474=AXIS2_PLACEMENT_3D('',#742,#583,#584);
#475=AXIS2_PLACEMENT_3D('',#771,#585,#586);
#476=AXIS2_PLACEMENT_3D('',#773,#587,#588);
#477=AXIS2_PLACEMENT_3D('',#774,#589,#590);
#478=AXIS2_PLACEMENT_3D('',#775,#591,#592);
#479=AXIS2_PLACEMENT_3D('',#778,#594,#595);
#480=AXIS2_PLACEMENT_3D('',#779,#596,#597);
#481=AXIS2_PLACEMENT_3D('',#780,#598,#599);
#482=AXIS2_PLACEMENT_3D('',#783,#600,#601);
#483=AXIS2_PLACEMENT_3D('',#785,#603,#604);
#484=AXIS2_PLACEMENT_3D('',#815,#605,#606);
#485=AXIS2_PLACEMENT_3D('',#816,#607,#608);
#486=AXIS2_PLACEMENT_3D('',#817,#609,#610);
#487=AXIS2_PLACEMENT_3D('',#818,#611,#612);
#488=AXIS2_PLACEMENT_3D('',#821,#613,#614);
#489=AXIS2_PLACEMENT_3D('',#823,#616,#617);
#490=AXIS2_PLACEMENT_3D('',#824,#618,#619);
#491=AXIS2_PLACEMENT_3D('',#826,#620,#621);
#492=AXIS2_PLACEMENT_3D('',#827,#622,#623);
#493=AXIS2_PLACEMENT_3D('',#828,#624,#625);
#494=AXIS2_PLACEMENT_3D('',#830,#626,#627);
#495=AXIS2_PLACEMENT_3D('',#832,#628,#629);
#496=AXIS2_PLACEMENT_3D('',#833,#630,#631);
#497=AXIS2_PLACEMENT_3D('',#865,#632,#633);
#498=AXIS2_PLACEMENT_3D('',#866,#634,#635);
#499=AXIS2_PLACEMENT_3D('',#868,#636,#637);
#500=AXIS2_PLACEMENT_3D('',#869,#638,#639);
#501=AXIS2_PLACEMENT_3D('',#871,#640,#641);
#502=AXIS2_PLACEMENT_3D('',#873,#643,#644);
#503=DIRECTION('axis',(0.,0.,1.));
#504=DIRECTION('refdir',(1.,0.,0.));
#505=DIRECTION('center_axis',(-1.,0.,0.));
#506=DIRECTION('ref_axis',(0.,1.,0.));
#507=DIRECTION('center_axis',(-1.,0.,0.));
#508=DIRECTION('ref_axis',(0.,1.,0.));
#509=DIRECTION('',(-1.,0.,0.));
#510=DIRECTION('center_axis',(1.,0.,0.));
#511=DIRECTION('ref_axis',(0.,1.,0.));
#512=DIRECTION('center_axis',(-1.,0.,0.));
#513=DIRECTION('ref_axis',(0.,1.,0.));
#514=DIRECTION('center_axis',(-1.,0.,0.));
#515=DIRECTION('ref_axis',(0.,1.,0.));
#516=DIRECTION('',(-1.,0.,0.));
#517=DIRECTION('center_axis',(1.,0.,0.));
#518=DIRECTION('ref_axis',(0.,1.,0.));
#519=DIRECTION('center_axis',(-1.,0.,0.));
#520=DIRECTION('ref_axis',(0.,1.,0.));
#521=DIRECTION('center_axis',(-1.,0.,0.));
#522=DIRECTION('ref_axis',(0.,1.,0.));
#523=DIRECTION('',(-1.,0.,0.));
#524=DIRECTION('center_axis',(1.,0.,0.));
#525=DIRECTION('ref_axis',(0.,1.,0.));
#526=DIRECTION('center_axis',(-1.,0.,0.));
#527=DIRECTION('ref_axis',(0.,1.,0.));
#528=DIRECTION('center_axis',(-1.,0.,0.));
#529=DIRECTION('ref_axis',(0.,1.,0.));
#530=DIRECTION('',(-1.,0.,0.));
#531=DIRECTION('center_axis',(1.,0.,0.));
#532=DIRECTION('ref_axis',(0.,1.,0.));
#533=DIRECTION('center_axis',(-1.,0.,0.));
#534=DIRECTION('ref_axis',(0.,1.,0.));
#535=DIRECTION('center_axis',(-1.,0.,0.));
#536=DIRECTION('ref_axis',(0.,1.,0.));
#537=DIRECTION('',(-1.,0.,0.));
#538=DIRECTION('center_axis',(1.,0.,0.));
#539=DIRECTION('ref_axis',(0.,1.,0.));
#540=DIRECTION('center_axis',(-1.,0.,0.));
#541=DIRECTION('ref_axis',(0.,1.,0.));
#542=DIRECTION('center_axis',(-1.,0.,0.));
#543=DIRECTION('ref_axis',(0.,1.,0.));
#544=DIRECTION('',(-1.,0.,0.));
#545=DIRECTION('center_axis',(1.,0.,0.));
#546=DIRECTION('ref_axis',(0.,1.,0.));
#547=DIRECTION('center_axis',(-1.,0.,0.));
#548=DIRECTION('ref_axis',(0.,-1.,0.));
#549=DIRECTION('center_axis',(1.,0.,0.));
#550=DIRECTION('ref_axis',(0.,-1.,0.));
#551=DIRECTION('',(1.,0.,0.));
#552=DIRECTION('center_axis',(-1.,0.,0.));
#553=DIRECTION('ref_axis',(0.,-1.,0.));
#554=DIRECTION('center_axis',(-1.,0.,0.));
#555=DIRECTION('ref_axis',(0.,-1.,0.));
#556=DIRECTION('center_axis',(-1.,0.,0.));
#557=DIRECTION('ref_axis',(0.,-1.,0.));
#558=DIRECTION('center_axis',(1.,0.,0.));
#559=DIRECTION('ref_axis',(0.,0.,-1.));
#560=DIRECTION('center_axis',(1.,0.,0.));
#561=DIRECTION('ref_axis',(0.,0.,-1.));
#562=DIRECTION('center_axis',(1.,0.,0.));
#563=DIRECTION('ref_axis',(0.,0.,-1.));
#564=DIRECTION('center_axis',(1.,0.,0.));
#565=DIRECTION('ref_axis',(0.,0.,-1.));
#566=DIRECTION('center_axis',(1.,0.,0.));
#567=DIRECTION('ref_axis',(0.,0.,-1.));
#568=DIRECTION('center_axis',(0.,-1.,-1.22464679914735E-16));
#569=DIRECTION('ref_axis',(0.,-1.22464679914735E-16,1.));
#570=DIRECTION('center_axis',(1.,0.,0.));
#571=DIRECTION('ref_axis',(0.,0.,-1.));
#572=DIRECTION('center_axis',(1.,0.,0.));
#573=DIRECTION('ref_axis',(0.,0.,-1.));
#574=DIRECTION('center_axis',(1.,0.,0.));
#575=DIRECTION('ref_axis',(0.,0.,-1.));
#576=DIRECTION('center_axis',(0.,-1.,-1.22464679914735E-16));
#577=DIRECTION('ref_axis',(0.,-1.22464679914735E-16,1.));
#578=DIRECTION('center_axis',(-1.,0.,0.));
#579=DIRECTION('ref_axis',(0.,1.,0.));
#580=DIRECTION('',(-0.866025401241476,-0.500000004404541,-6.12323404967683E-17));
#581=DIRECTION('center_axis',(1.,0.,0.));
#582=DIRECTION('ref_axis',(0.,0.,-1.));
#583=DIRECTION('center_axis',(1.,0.,0.));
#584=DIRECTION('ref_axis',(0.,0.,-1.));
#585=DIRECTION('center_axis',(0.,-1.,-1.22464679914735E-16));
#586=DIRECTION('ref_axis',(0.,-1.22464679914735E-16,1.));
#587=DIRECTION('center_axis',(1.,0.,0.));
#588=DIRECTION('ref_axis',(0.,0.,-1.));
#589=DIRECTION('center_axis',(1.,0.,0.));
#590=DIRECTION('ref_axis',(0.,0.,-1.));
#591=DIRECTION('center_axis',(1.,0.,0.));
#592=DIRECTION('ref_axis',(0.,1.,0.));
#593=DIRECTION('',(-1.,0.,0.));
#594=DIRECTION('center_axis',(1.,0.,0.));
#595=DIRECTION('ref_axis',(0.,0.,-1.));
#596=DIRECTION('center_axis',(-1.,0.,0.));
#597=DIRECTION('ref_axis',(0.,0.,1.));
#598=DIRECTION('center_axis',(1.,0.,0.));
#599=DIRECTION('ref_axis',(0.,1.,0.));
#600=DIRECTION('center_axis',(1.,0.,0.));
#601=DIRECTION('ref_axis',(0.,0.,-1.));
#602=DIRECTION('',(-1.,0.,0.));
#603=DIRECTION('center_axis',(1.,0.,0.));
#604=DIRECTION('ref_axis',(0.,0.,-1.));
#605=DIRECTION('center_axis',(1.,0.,0.));
#606=DIRECTION('ref_axis',(0.,0.,-1.));
#607=DIRECTION('center_axis',(1.,0.,0.));
#608=DIRECTION('ref_axis',(0.,0.,-1.));
#609=DIRECTION('center_axis',(0.,-1.,-1.22464679914735E-16));
#610=DIRECTION('ref_axis',(0.,-1.22464679914735E-16,1.));
#611=DIRECTION('center_axis',(-1.,0.,0.));
#612=DIRECTION('ref_axis',(0.,1.,0.));
#613=DIRECTION('center_axis',(1.,0.,0.));
#614=DIRECTION('ref_axis',(0.,0.,-1.));
#615=DIRECTION('',(-0.866025401241476,-0.500000004404541,-6.12323404967683E-17));
#616=DIRECTION('center_axis',(1.,0.,0.));
#617=DIRECTION('ref_axis',(0.,0.,-1.));
#618=DIRECTION('center_axis',(1.,0.,0.));
#619=DIRECTION('ref_axis',(0.,0.,-1.));
#620=DIRECTION('center_axis',(0.,-1.,-1.22464679914735E-16));
#621=DIRECTION('ref_axis',(0.,-1.22464679914735E-16,1.));
#622=DIRECTION('center_axis',(1.,0.,0.));
#623=DIRECTION('ref_axis',(0.,0.,-1.));
#624=DIRECTION('center_axis',(1.,0.,0.));
#625=DIRECTION('ref_axis',(0.,0.,-1.));
#626=DIRECTION('center_axis',(0.,-1.,-1.22464679914735E-16));
#627=DIRECTION('ref_axis',(0.,-1.22464679914735E-16,1.));
#628=DIRECTION('center_axis',(1.,0.,0.));
#629=DIRECTION('ref_axis',(0.,0.,-1.));
#630=DIRECTION('center_axis',(1.,0.,0.));
#631=DIRECTION('ref_axis',(0.,0.,-1.));
#632=DIRECTION('center_axis',(1.,0.,0.));
#633=DIRECTION('ref_axis',(0.,0.,-1.));
#634=DIRECTION('center_axis',(-1.,0.,0.));
#635=DIRECTION('ref_axis',(0.,0.,1.));
#636=DIRECTION('center_axis',(1.,0.,0.));
#637=DIRECTION('ref_axis',(0.,0.,-1.));
#638=DIRECTION('center_axis',(1.,0.,0.));
#639=DIRECTION('ref_axis',(0.,1.,0.));
#640=DIRECTION('center_axis',(1.,0.,0.));
#641=DIRECTION('ref_axis',(0.,0.,-1.));
#642=DIRECTION('',(-1.,0.,0.));
#643=DIRECTION('center_axis',(1.,0.,0.));
#644=DIRECTION('ref_axis',(0.,0.,-1.));
#645=CARTESIAN_POINT('',(0.,0.,0.));
#646=CARTESIAN_POINT('Origin',(232.932476,-6.12323399573677E-15,-50.));
#647=CARTESIAN_POINT('',(232.932476,-5.,-50.));
#648=CARTESIAN_POINT('Origin',(232.932476,-6.12323399573677E-15,-50.));
#649=CARTESIAN_POINT('',(222.932476,-5.,-50.));
#650=CARTESIAN_POINT('',(232.932476,-5.,-50.));
#651=CARTESIAN_POINT('Origin',(222.932476,-6.12323399573677E-15,-50.));
#652=CARTESIAN_POINT('Origin',(232.932476,0.,50.));
#653=CARTESIAN_POINT('',(232.932476,-5.,50.));
#654=CARTESIAN_POINT('Origin',(232.932476,0.,50.));
#655=CARTESIAN_POINT('',(222.932476,-5.,50.));
#656=CARTESIAN_POINT('',(232.932476,-5.,50.));
#657=CARTESIAN_POINT('Origin',(222.932476,0.,50.));
#658=CARTESIAN_POINT('Origin',(232.932476,-43.3012701892219,-25.));
#659=CARTESIAN_POINT('',(232.932476,-48.3012701892219,-25.));
#660=CARTESIAN_POINT('Origin',(232.932476,-43.3012701892219,-25.));
#661=CARTESIAN_POINT('',(222.932476,-48.3012701892219,-25.));
#662=CARTESIAN_POINT('',(232.932476,-48.3012701892219,-25.));
#663=CARTESIAN_POINT('Origin',(222.932476,-43.3012701892219,-25.));
#664=CARTESIAN_POINT('Origin',(232.932476,43.3012701892219,-25.));
#665=CARTESIAN_POINT('',(232.932476,38.3012701892219,-25.));
#666=CARTESIAN_POINT('Origin',(232.932476,43.3012701892219,-25.));
#667=CARTESIAN_POINT('',(222.932476,38.3012701892219,-25.));
#668=CARTESIAN_POINT('',(232.932476,38.3012701892219,-25.));
#669=CARTESIAN_POINT('Origin',(222.932476,43.3012701892219,-25.));
#670=CARTESIAN_POINT('Origin',(232.932476,43.301270189222,25.));
#671=CARTESIAN_POINT('',(232.932476,38.301270189222,25.));
#672=CARTESIAN_POINT('Origin',(232.932476,43.301270189222,25.));
#673=CARTESIAN_POINT('',(222.932476,38.301270189222,25.));
#674=CARTESIAN_POINT('',(232.932476,38.301270189222,25.));
#675=CARTESIAN_POINT('Origin',(222.932476,43.301270189222,25.));
#676=CARTESIAN_POINT('Origin',(232.932476,-43.3012701892219,25.));
#677=CARTESIAN_POINT('',(232.932476,-48.3012701892219,25.));
#678=CARTESIAN_POINT('Origin',(232.932476,-43.3012701892219,25.));
#679=CARTESIAN_POINT('',(222.932476,-48.3012701892219,25.));
#680=CARTESIAN_POINT('',(232.932476,-48.3012701892219,25.));
#681=CARTESIAN_POINT('Origin',(222.932476,-43.3012701892219,25.));
#682=CARTESIAN_POINT('Origin',(0.,0.,0.));
#683=CARTESIAN_POINT('',(-5.,33.808290965622,-4.14032153156913E-15));
#684=CARTESIAN_POINT('Origin',(-5.,0.,0.));
#685=CARTESIAN_POINT('',(0.,33.808290965622,-4.14032153156913E-15));
#686=CARTESIAN_POINT('',(0.,33.808290965622,-4.14032153156913E-15));
#687=CARTESIAN_POINT('Origin',(0.,0.,0.));
#688=CARTESIAN_POINT('Origin',(-5.,0.,0.));
#689=CARTESIAN_POINT('',(-5.,-36.308291,-4.44648323556606E-15));
#690=CARTESIAN_POINT('Origin',(-5.,0.,0.));
#691=CARTESIAN_POINT('Ctrl Pts',(188.715957,12.948098,0.));
#692=CARTESIAN_POINT('Ctrl Pts',(188.715957,12.948098,12.948098));
#693=CARTESIAN_POINT('Ctrl Pts',(188.715957,0.,12.948098));
#694=CARTESIAN_POINT('Ctrl Pts',(188.715957,-12.948098,12.948098));
#695=CARTESIAN_POINT('Ctrl Pts',(188.715957,-12.948098,0.));
#696=CARTESIAN_POINT('Ctrl Pts',(188.715957,-12.948098,-12.948098));
#697=CARTESIAN_POINT('Ctrl Pts',(188.715957,0.,-12.948098));
#698=CARTESIAN_POINT('Ctrl Pts',(188.715957,12.948098,-12.948098));
#699=CARTESIAN_POINT('Ctrl Pts',(188.715957,12.948098,0.));
#700=CARTESIAN_POINT('Ctrl Pts',(212.047001,19.203043,0.));
#701=CARTESIAN_POINT('Ctrl Pts',(212.047001,19.203043,19.203043));
#702=CARTESIAN_POINT('Ctrl Pts',(212.047001,0.,19.203043));
#703=CARTESIAN_POINT('Ctrl Pts',(212.047001,-19.203043,19.203043));
#704=CARTESIAN_POINT('Ctrl Pts',(212.047001,-19.203043,0.));
#705=CARTESIAN_POINT('Ctrl Pts',(212.047001,-19.203043,-19.203043));
#706=CARTESIAN_POINT('Ctrl Pts',(212.047001,0.,-19.203043));
#707=CARTESIAN_POINT('Ctrl Pts',(212.047001,19.203043,-19.203043));
#708=CARTESIAN_POINT('Ctrl Pts',(212.047001,19.203043,0.));
#709=CARTESIAN_POINT('Ctrl Pts',(232.932476,22.138305,0.));
#710=CARTESIAN_POINT('Ctrl Pts',(232.932476,22.138305,22.138305));
#711=CARTESIAN_POINT('Ctrl Pts',(232.932476,0.,22.138305));
#712=CARTESIAN_POINT('Ctrl Pts',(232.932476,-22.138305,22.138305));
#713=CARTESIAN_POINT('Ctrl Pts',(232.932476,-22.138305,0.));
#714=CARTESIAN_POINT('Ctrl Pts',(232.932476,-22.138305,-22.138305));
#715=CARTESIAN_POINT('Ctrl Pts',(232.932476,0.,-22.138305));
#716=CARTESIAN_POINT('Ctrl Pts',(232.932476,22.138305,-22.138305));
#717=CARTESIAN_POINT('Ctrl Pts',(232.932476,22.138305,0.));
#718=CARTESIAN_POINT('',(188.715957,12.948098,0.));
#719=CARTESIAN_POINT('',(232.932476,22.138305,0.));
#720=CARTESIAN_POINT('Ctrl Pts',(188.715957,12.948098,0.));
#721=CARTESIAN_POINT('Ctrl Pts',(212.047001,19.203043,0.));
#722=CARTESIAN_POINT('Ctrl Pts',(232.932476,22.138305,0.));
#723=CARTESIAN_POINT('Origin',(232.932476,0.,0.));
#724=CARTESIAN_POINT('',(188.715957,-1.58568467707462E-15,12.948098));
#725=CARTESIAN_POINT('Origin',(188.715957,0.,0.));
#726=CARTESIAN_POINT('Origin',(188.715957,0.,0.));
#727=CARTESIAN_POINT('Origin',(187.451616,0.,0.));
#728=CARTESIAN_POINT('',(187.451616,-1.56528928681694E-15,12.781557));
#729=CARTESIAN_POINT('Origin',(187.451616,0.,0.));
#730=CARTESIAN_POINT('Origin',(187.451616,-2.16322969959336E-15,17.664111));
#731=CARTESIAN_POINT('Origin',(187.451616,0.,0.));
#732=CARTESIAN_POINT('',(177.865449,-15.350162,-1.87985267596933E-15));
#733=CARTESIAN_POINT('',(177.865449,-1.87985267596933E-15,15.350162));
#734=CARTESIAN_POINT('Origin',(177.865449,0.,0.));
#735=CARTESIAN_POINT('Origin',(177.865449,0.,0.));
#736=CARTESIAN_POINT('Origin',(187.451616,-3.91322303334534E-15,31.953891));
#737=CARTESIAN_POINT('Origin',(170.9553765,0.,0.));
#738=CARTESIAN_POINT('',(164.045304,-23.3292265297073,-2.85700625961896E-15));
#739=CARTESIAN_POINT('',(170.9553765,-19.3396942648537,-2.36842946779415E-15));
#740=CARTESIAN_POINT('',(164.045304,-2.85700625961896E-15,23.3292265297073));
#741=CARTESIAN_POINT('Origin',(164.045304,0.,0.));
#742=CARTESIAN_POINT('Origin',(164.045304,0.,0.));
#743=CARTESIAN_POINT('Ctrl Pts',(134.26703,0.,31.308291));
#744=CARTESIAN_POINT('Ctrl Pts',(134.26703,-31.308291,31.308291));
#745=CARTESIAN_POINT('Ctrl Pts',(134.26703,-31.308291,0.));
#746=CARTESIAN_POINT('Ctrl Pts',(134.26703,-31.308291,-31.308291));
#747=CARTESIAN_POINT('Ctrl Pts',(134.26703,0.,-31.308291));
#748=CARTESIAN_POINT('Ctrl Pts',(134.26703,31.308291,-31.308291));
#749=CARTESIAN_POINT('Ctrl Pts',(134.26703,31.308291,0.));
#750=CARTESIAN_POINT('Ctrl Pts',(134.26703,31.308291,31.308291));
#751=CARTESIAN_POINT('Ctrl Pts',(134.26703,0.,31.308291));
#752=CARTESIAN_POINT('Ctrl Pts',(150.225158940585,0.,31.308291));
#753=CARTESIAN_POINT('Ctrl Pts',(150.225158940585,-31.308291,31.308291));
#754=CARTESIAN_POINT('Ctrl Pts',(150.225158940585,-31.308291,0.));
#755=CARTESIAN_POINT('Ctrl Pts',(150.225158940585,-31.308291,-31.308291));
#756=CARTESIAN_POINT('Ctrl Pts',(150.225158940585,0.,-31.308291));
#757=CARTESIAN_POINT('Ctrl Pts',(150.225158940585,31.308291,-31.308291));
#758=CARTESIAN_POINT('Ctrl Pts',(150.225158940585,31.308291,0.));
#759=CARTESIAN_POINT('Ctrl Pts',(150.225158940585,31.308291,31.308291));
#760=CARTESIAN_POINT('Ctrl Pts',(150.225158940585,0.,31.308291));
#761=CARTESIAN_POINT('Ctrl Pts',(164.045304,0.,23.3292265297073));
#762=CARTESIAN_POINT('Ctrl Pts',(164.045304,-23.3292265297073,23.3292265297073));
#763=CARTESIAN_POINT('Ctrl Pts',(164.045304,-23.3292265297073,0.));
#764=CARTESIAN_POINT('Ctrl Pts',(164.045304,-23.3292265297073,-23.3292265297073));
#765=CARTESIAN_POINT('Ctrl Pts',(164.045304,0.,-23.3292265297073));
#766=CARTESIAN_POINT('Ctrl Pts',(164.045304,23.3292265297073,-23.3292265297073));
#767=CARTESIAN_POINT('Ctrl Pts',(164.045304,23.3292265297073,0.));
#768=CARTESIAN_POINT('Ctrl Pts',(164.045304,23.3292265297073,23.3292265297073));
#769=CARTESIAN_POINT('Ctrl Pts',(164.045304,0.,23.3292265297073));
#770=CARTESIAN_POINT('',(134.26703,-3.83415983599239E-15,31.308291));
#771=CARTESIAN_POINT('Origin',(134.26703,3.45941375165418E-15,-28.248257));
#772=CARTESIAN_POINT('',(134.26703,-31.308291,-3.83415983599239E-15));
#773=CARTESIAN_POINT('Origin',(134.26703,0.,0.));
#774=CARTESIAN_POINT('Origin',(134.26703,0.,0.));
#775=CARTESIAN_POINT('Origin',(67.133515,0.,0.));
#776=CARTESIAN_POINT('',(0.,-31.308291,-3.83415983599239E-15));
#777=CARTESIAN_POINT('',(67.133515,-31.308291,-3.83415983599239E-15));
#778=CARTESIAN_POINT('Origin',(0.,0.,0.));
#779=CARTESIAN_POINT('Origin',(0.,36.308291,0.));
#780=CARTESIAN_POINT('Origin',(67.133515,0.,0.));
#781=CARTESIAN_POINT('',(134.26703,-36.308291,-4.44648323556606E-15));
#782=CARTESIAN_POINT('',(134.26703,-4.44648323556606E-15,36.308291));
#783=CARTESIAN_POINT('Origin',(134.26703,0.,0.));
#784=CARTESIAN_POINT('',(67.133515,-36.308291,-4.44648323556606E-15));
#785=CARTESIAN_POINT('Origin',(134.26703,0.,0.));
#786=CARTESIAN_POINT('Ctrl Pts',(134.26703,0.,36.308291));
#787=CARTESIAN_POINT('Ctrl Pts',(134.26703,-36.308291,36.308291));
#788=CARTESIAN_POINT('Ctrl Pts',(134.26703,-36.308291,0.));
#789=CARTESIAN_POINT('Ctrl Pts',(134.26703,-36.308291,-36.308291));
#790=CARTESIAN_POINT('Ctrl Pts',(134.26703,0.,-36.308291));
#791=CARTESIAN_POINT('Ctrl Pts',(134.26703,36.308291,-36.308291));
#792=CARTESIAN_POINT('Ctrl Pts',(134.26703,36.308291,0.));
#793=CARTESIAN_POINT('Ctrl Pts',(134.26703,36.308291,36.308291));
#794=CARTESIAN_POINT('Ctrl Pts',(134.26703,0.,36.308291));
#795=CARTESIAN_POINT('Ctrl Pts',(150.225158940585,0.,36.308291));
#796=CARTESIAN_POINT('Ctrl Pts',(150.225158940585,-36.308291,36.308291));
#797=CARTESIAN_POINT('Ctrl Pts',(150.225158940585,-36.308291,0.));
#798=CARTESIAN_POINT('Ctrl Pts',(150.225158940585,-36.308291,-36.308291));
#799=CARTESIAN_POINT('Ctrl Pts',(150.225158940585,0.,-36.308291));
#800=CARTESIAN_POINT('Ctrl Pts',(150.225158940585,36.308291,-36.308291));
#801=CARTESIAN_POINT('Ctrl Pts',(150.225158940585,36.308291,0.));
#802=CARTESIAN_POINT('Ctrl Pts',(150.225158940585,36.308291,36.308291));
#803=CARTESIAN_POINT('Ctrl Pts',(150.225158940585,0.,36.308291));
#804=CARTESIAN_POINT('Ctrl Pts',(164.045304,0.,28.3292265297073));
#805=CARTESIAN_POINT('Ctrl Pts',(164.045304,-28.3292265297073,28.3292265297073));
#806=CARTESIAN_POINT('Ctrl Pts',(164.045304,-28.3292265297073,0.));
#807=CARTESIAN_POINT('Ctrl Pts',(164.045304,-28.3292265297073,-28.3292265297073));
#808=CARTESIAN_POINT('Ctrl Pts',(164.045304,0.,-28.3292265297073));
#809=CARTESIAN_POINT('Ctrl Pts',(164.045304,28.3292265297073,-28.3292265297073));
#810=CARTESIAN_POINT('Ctrl Pts',(164.045304,28.3292265297073,0.));
#811=CARTESIAN_POINT('Ctrl Pts',(164.045304,28.3292265297073,28.3292265297073));
#812=CARTESIAN_POINT('Ctrl Pts',(164.045304,0.,28.3292265297073));
#813=CARTESIAN_POINT('',(164.045304,-28.3292265297073,-3.46932965919263E-15));
#814=CARTESIAN_POINT('',(164.045304,-3.46932965919263E-15,28.3292265297073));
#815=CARTESIAN_POINT('Origin',(164.045304,0.,0.));
#816=CARTESIAN_POINT('Origin',(164.045304,0.,0.));
#817=CARTESIAN_POINT('Origin',(134.26703,2.8470903520805E-15,-23.248257));
#818=CARTESIAN_POINT('Origin',(170.9553765,0.,0.));
#819=CARTESIAN_POINT('',(177.865449,-20.350162,-2.49217607554301E-15));
#820=CARTESIAN_POINT('',(177.865449,-2.49217607554301E-15,20.350162));
#821=CARTESIAN_POINT('Origin',(177.865449,0.,0.));
#822=CARTESIAN_POINT('',(170.9553765,-24.3396942648537,-2.98075286736782E-15));
#823=CARTESIAN_POINT('Origin',(177.865449,0.,0.));
#824=CARTESIAN_POINT('Origin',(187.451616,0.,0.));
#825=CARTESIAN_POINT('',(187.451616,-2.17761261149706E-15,17.7815563884476));
#826=CARTESIAN_POINT('Origin',(187.451616,-4.52554643291902E-15,36.953891));
#827=CARTESIAN_POINT('Origin',(187.451616,0.,0.));
#828=CARTESIAN_POINT('Origin',(187.451616,0.,0.));
#829=CARTESIAN_POINT('',(188.715957,-2.1980080766483E-15,17.948098));
#830=CARTESIAN_POINT('Origin',(187.451616,-2.77555309916703E-15,22.664111));
#831=CARTESIAN_POINT('',(188.715957,17.948098,0.));
#832=CARTESIAN_POINT('Origin',(188.715957,0.,0.));
#833=CARTESIAN_POINT('Origin',(188.715957,0.,0.));
#834=CARTESIAN_POINT('Ctrl Pts',(222.932476,25.5669550742045,0.));
#835=CARTESIAN_POINT('Ctrl Pts',(222.932476,25.5669550742045,25.5669550742045));
#836=CARTESIAN_POINT('Ctrl Pts',(222.932476,0.,25.5669550742045));
#837=CARTESIAN_POINT('Ctrl Pts',(222.932476,-25.5669550742045,25.5669550742045));
#838=CARTESIAN_POINT('Ctrl Pts',(222.932476,-25.5669550742045,0.));
#839=CARTESIAN_POINT('Ctrl Pts',(222.932476,-25.5669550742045,-25.5669550742045));
#840=CARTESIAN_POINT('Ctrl Pts',(222.932476,0.,-25.5669550742045));
#841=CARTESIAN_POINT('Ctrl Pts',(222.932476,25.5669550742045,-25.5669550742045));
#842=CARTESIAN_POINT('Ctrl Pts',(222.932476,25.5669550742045,0.));
#843=CARTESIAN_POINT('Ctrl Pts',(206.537696425926,22.726023921939,0.));
#844=CARTESIAN_POINT('Ctrl Pts',(206.537696425926,22.726023921939,22.726023921939));
#845=CARTESIAN_POINT('Ctrl Pts',(206.537696425926,0.,22.726023921939));
#846=CARTESIAN_POINT('Ctrl Pts',(206.537696425926,-22.726023921939,22.726023921939));
#847=CARTESIAN_POINT('Ctrl Pts',(206.537696425926,-22.726023921939,0.));
#848=CARTESIAN_POINT('Ctrl Pts',(206.537696425926,-22.726023921939,-22.726023921939));
#849=CARTESIAN_POINT('Ctrl Pts',(206.537696425926,0.,-22.726023921939));
#850=CARTESIAN_POINT('Ctrl Pts',(206.537696425926,22.726023921939,-22.726023921939));
#851=CARTESIAN_POINT('Ctrl Pts',(206.537696425926,22.726023921939,0.));
#852=CARTESIAN_POINT('Ctrl Pts',(188.715957,17.948098,0.));
#853=CARTESIAN_POINT('Ctrl Pts',(188.715957,17.948098,17.948098));
#854=CARTESIAN_POINT('Ctrl Pts',(188.715957,0.,17.948098));
#855=CARTESIAN_POINT('Ctrl Pts',(188.715957,-17.948098,17.948098));
#856=CARTESIAN_POINT('Ctrl Pts',(188.715957,-17.948098,0.));
#857=CARTESIAN_POINT('Ctrl Pts',(188.715957,-17.948098,-17.948098));
#858=CARTESIAN_POINT('Ctrl Pts',(188.715957,0.,-17.948098));
#859=CARTESIAN_POINT('Ctrl Pts',(188.715957,17.948098,-17.948098));
#860=CARTESIAN_POINT('Ctrl Pts',(188.715957,17.948098,0.));
#861=CARTESIAN_POINT('',(222.932476,25.5669550742065,0.));
#862=CARTESIAN_POINT('Ctrl Pts',(188.715957,17.948098,0.));
#863=CARTESIAN_POINT('Ctrl Pts',(206.537696425926,22.726023921939,0.));
#864=CARTESIAN_POINT('Ctrl Pts',(222.932476,25.5669550742045,0.));
#865=CARTESIAN_POINT('Origin',(222.932476,0.,0.));
#866=CARTESIAN_POINT('Origin',(222.932476,65.5669550742065,0.));
#867=CARTESIAN_POINT('',(222.932476,-65.5669550742065,-8.02963616614653E-15));
#868=CARTESIAN_POINT('Origin',(222.932476,0.,0.));
#869=CARTESIAN_POINT('Origin',(227.932476,0.,0.));
#870=CARTESIAN_POINT('',(232.932476,-65.5669550742065,-8.02963616614653E-15));
#871=CARTESIAN_POINT('Origin',(232.932476,0.,0.));
#872=CARTESIAN_POINT('',(227.932476,-65.5669550742065,-8.02963616614653E-15));
#873=CARTESIAN_POINT('Origin',(232.932476,22.138305,0.));
#874=UNCERTAINTY_MEASURE_WITH_UNIT(LENGTH_MEASURE(0.01),#878,
'DISTANCE_ACCURACY_VALUE',
'Maximum model space distance between geometric entities at asserted c
onnectivities');
#875=UNCERTAINTY_MEASURE_WITH_UNIT(LENGTH_MEASURE(0.01),#878,
'DISTANCE_ACCURACY_VALUE',
'Maximum model space distance between geometric entities at asserted c
onnectivities');
#876=(
GEOMETRIC_REPRESENTATION_CONTEXT(3)
GLOBAL_UNCERTAINTY_ASSIGNED_CONTEXT((#874))
GLOBAL_UNIT_ASSIGNED_CONTEXT((#878,#880,#881))
REPRESENTATION_CONTEXT('','3D')
);
#877=(
GEOMETRIC_REPRESENTATION_CONTEXT(3)
GLOBAL_UNCERTAINTY_ASSIGNED_CONTEXT((#875))
GLOBAL_UNIT_ASSIGNED_CONTEXT((#878,#880,#881))
REPRESENTATION_CONTEXT('','3D')
);
#878=(
LENGTH_UNIT()
NAMED_UNIT(*)
SI_UNIT(.MILLI.,.METRE.)
);
#879=(
LENGTH_UNIT()
NAMED_UNIT(*)
SI_UNIT($,.METRE.)
);
#880=(
NAMED_UNIT(*)
PLANE_ANGLE_UNIT()
SI_UNIT($,.RADIAN.)
);
#881=(
NAMED_UNIT(*)
SI_UNIT($,.STERADIAN.)
SOLID_ANGLE_UNIT()
);
#882=SHAPE_DEFINITION_REPRESENTATION(#883,#884);
#883=PRODUCT_DEFINITION_SHAPE('',$,#886);
#884=SHAPE_REPRESENTATION('',(#438),#876);
#885=PRODUCT_DEFINITION_CONTEXT('part definition',#890,'design');
#886=PRODUCT_DEFINITION(
'Phoenix_v6 (0.7m L @ 1kN + 1.5MPa) Contraction Ratio - 6',
'Phoenix_v6 (0.7m L @ 1kN + 1.5MPa) Contraction Ratio - 6 v5',#887,#885);
#887=PRODUCT_DEFINITION_FORMATION('',$,#892);
#888=PRODUCT_RELATED_PRODUCT_CATEGORY(
'Phoenix_v6 (0.7m L @ 1kN + 1.5MPa) Contraction Ratio - 6 v5',
'Phoenix_v6 (0.7m L @ 1kN + 1.5MPa) Contraction Ratio - 6 v5',(#892));
#889=APPLICATION_PROTOCOL_DEFINITION('international standard',
'automotive_design',2009,#890);
#890=APPLICATION_CONTEXT(
'Core Data for Automotive Mechanical Design Process');
#891=PRODUCT_CONTEXT('part definition',#890,'mechanical');
#892=PRODUCT('Phoenix_v6 (0.7m L @ 1kN + 1.5MPa) Contraction Ratio - 6',
'Phoenix_v6 (0.7m L @ 1kN + 1.5MPa) Contraction Ratio - 6 v5',$,(#891));
#893=PRESENTATION_STYLE_ASSIGNMENT((#894));
#894=SURFACE_STYLE_USAGE(.BOTH.,#895);
#895=SURFACE_SIDE_STYLE('',(#896));
#896=SURFACE_STYLE_FILL_AREA(#897);
#897=FILL_AREA_STYLE('Steel - Satin',(#898));
#898=FILL_AREA_STYLE_COLOUR('Steel - Satin',#899);
#899=COLOUR_RGB('Steel - Satin',0.627450980392157,0.627450980392157,0.627450980392157);
ENDSEC;
END-ISO-10303-21;
