999
Created from RPA - Tool for Rocket Propulsion Analysis
999
http://www.propulsion-analysis.com
999
Phoenix
  0
SECTION
  2
HEADER
  9
$ACADVER
  1
AC1014
  9
$HANDSEED
  5
FFFF
  9
$MEASUREMENT
 70
1
  9
$MEASUREINIT 
 70
1
  9
$INSUNITS
 70
4
  9
$DIMSTYLE
  2
Standard
  9
$DIMUNIT
 70
2
  9
$DIMTXT
 40
2.500000
  9
$DIMASZ
 40
2.500000
  9
$DIMEXE
 40
1.250000
  9
$DIMEXO
 40
0.625000
  9
$DIMGAP
 40
0.625000
  0
ENDSEC
  0
SECTION
  2
TABLES
  0
TABLE
  2
VPORT
  5
13C
100
AcDbSymbolTable
  0
VPORT
  5
13D
100
AcDbSymbolTableRecord
100
AcDbViewportTableRecord
  2
*Active
 70
0
 10
0.000000
 20
0.000000
 11
249.990741
 21
28.152088
 12
124.995371
 22
14.076044
 13
0.000000
 23
0.000000
 14
10.000000
 24
10.000000
 15
10.000000
 25
10.000000
 16
0.000000
 26
0.000000
 36
1.000000
 17
0.000000
 27
0.000000
 37
0.000000
 40
28.152088
 41
1.927984
 42
50.000000
 43
0.000000
 44
0.000000
 50
0.000000
 51
0.000000
 71
1
 72
100.000000
 73
1
 74
3
 75
1
 76
1
 77
0
 78
0
281
0
 65
1
  0
ENDTAB
  0
TABLE
  2
LTYPE
  5
13E
100
AcDbSymbolTable
 70
10
  0
LTYPE
  5
13F
100
AcDbSymbolTableRecord
100
AcDbLinetypeTableRecord
  2
ByBlock
 70
0
  3

 72
65
 73
0
 40
0.000000
  0
LTYPE
  5
140
100
AcDbSymbolTableRecord
100
AcDbLinetypeTableRecord
  2
ByLayer
 70
0
  3

 72
65
 73
0
 40
0.000000
  0
LTYPE
  5
141
100
AcDbSymbolTableRecord
100
AcDbLinetypeTableRecord
  2
CONTINUOUS
 70
0
  3
Solid line
 72
65
 73
0
 40
0.000000
  0
LTYPE
  5
142
100
AcDbSymbolTableRecord
100
AcDbLinetypeTableRecord
  2
DOT
 70
0
  3
Dot . . . . . . . . . . . . . . . . . . . . . .
 72
65
 73
2
 40
6.350000
 49
0.000000
 74
0.000000
 49
-6.350000
 74
0.000000
  0
LTYPE
  5
143
100
AcDbSymbolTableRecord
100
AcDbLinetypeTableRecord
  2
DOT2
 70
0
  3
Dot (.5x) .....................................
 72
65
 73
2
 40
3.175000
 49
0.000000
 74
0.000000
 49
-3.175000
 74
0.000000
  0
LTYPE
  5
144
100
AcDbSymbolTableRecord
100
AcDbLinetypeTableRecord
  2
DOTX2
 70
0
  3
Dot (2x) .  .  .  .  .  .  .  .  .  .  .  .  .
 72
65
 73
2
 40
12.700000
 49
0.000000
 74
0.000000
 49
-12.700000
 74
0.000000
  0
LTYPE
  5
145
100
AcDbSymbolTableRecord
100
AcDbLinetypeTableRecord
  2
DASHED
 70
0
  3
Dashed __ __ __ __ __ __ __ __ __ __ __ __ __ _
 72
65
 73
2
 40
19.050000
 49
12.700000
 74
0.000000
 49
-6.350000
 74
0.000000
  0
LTYPE
  5
146
100
AcDbSymbolTableRecord
100
AcDbLinetypeTableRecord
  2
DASHED2
 70
0
  3
Dashed (.5x) _ _ _ _ _ _ _ _ _ _ _ _ _ _ _ _ _
 72
65
 73
2
 40
9.525000
 49
6.350000
 74
0.000000
 49
-3.175000
 74
0.000000
  0
LTYPE
  5
147
100
AcDbSymbolTableRecord
100
AcDbLinetypeTableRecord
  2
DASHDOT
 70
0
  3
Dash dot __ . __ . __ . __ . __ . __ . __ . __
 72
65
 73
4
 40
25.400000
 49
12.700000
 74
0.000000
 49
-6.350000
 74
0.000000
 49
0.000000
 74
0.000000
 49
-6.350000
 74
0.000000
  0
LTYPE
  5
148
100
AcDbSymbolTableRecord
100
AcDbLinetypeTableRecord
  2
DASHDOT2
 70
0
  3
Dash dot (.5x) _._._._._._._._._._._._._._._.
 72
65
 73
4
 40
12.700000
 49
6.350000
 74
0.000000
 49
-3.175000
 74
0.000000
 49
0.000000
 74
0.000000
 49
-3.175000
 74
0.000000
  0
LTYPE
  5
149
100
AcDbSymbolTableRecord
100
AcDbLinetypeTableRecord
  2
DASHDOTX2
 70
0
  3
Dash dot (2x) ____  .  ____  .  ____  .  ___
 72
65
 73
4
 40
50.800000
 49
25.400000
 74
0.000000
 49
-12.700000
 74
0.000000
 49
0.000000
 74
0.000000
 49
-12.700000
 74
0.000000
  0
LTYPE
  5
14A
100
AcDbSymbolTableRecord
100
AcDbLinetypeTableRecord
  2
DIVIDE
 70
0
  3
Divide ____ . . ____ . . ____ . . ____ . . ____
 72
65
 73
6
 40
31.750000
 49
12.700000
 74
0.000000
 49
-6.350000
 74
0.000000
 49
0.000000
 74
0.000000
 49
-6.350000
 74
0.000000
 49
0.000000
 74
0.000000
 49
-6.350000
 74
0.000000
  0
LTYPE
  5
14B
100
AcDbSymbolTableRecord
100
AcDbLinetypeTableRecord
  2
DIVIDEX2
 70
0
  3
Divide (2x) ________  .  .  ________  .  .  _
 72
65
 73
6
 40
63.500000
 49
25.400000
 74
0.000000
 49
-12.700000
 74
0.000000
 49
0.000000
 74
0.000000
 49
-12.700000
 74
0.000000
 49
0.000000
 74
0.000000
 49
-12.700000
 74
0.000000
  0
LTYPE
  5
14C
100
AcDbSymbolTableRecord
100
AcDbLinetypeTableRecord
  2
CENTER
 70
0
  3
Center ____ _ ____ _ ____ _ ____ _ ____ _ ____
 72
65
 73
4
 40
50.800000
 49
31.750000
 74
0.000000
 49
-6.350000
 74
0.000000
 49
6.350000
 74
0.000000
 49
-6.350000
 74
0.000000
  0
LTYPE
  5
14D
100
AcDbSymbolTableRecord
100
AcDbLinetypeTableRecord
  2
CENTER2
 70
0
  3
Center (.5x) ___ _ ___ _ ___ _ ___ _ ___ _ ___
 72
65
 73
4
 40
28.575000
 49
19.050000
 74
0.000000
 49
-3.175000
 74
0.000000
 49
3.175000
 74
0.000000
 49
-3.175000
 74
0.000000
  0
LTYPE
  5
14E
100
AcDbSymbolTableRecord
100
AcDbLinetypeTableRecord
  2
CENTERX2
 70
0
  3
Center (2x) ________  __  ________  __  _____
 72
65
 73
4
 40
101.600000
 49
63.500000
 74
0.000000
 49
-12.700000
 74
0.000000
 49
12.700000
 74
0.000000
 49
-12.700000
 74
0.000000
  0
LTYPE
  5
14F
100
AcDbSymbolTableRecord
100
AcDbLinetypeTableRecord
  2
BORDER
 70
0
  3
Border __ __ . __ __ . __ __ . __ __ . __ __ .
 72
65
 73
6
 40
44.450000
 49
12.700000
 74
0.000000
 49
-6.350000
 74
0.000000
 49
12.700000
 74
0.000000
 49
-6.350000
 74
0.000000
 49
0.000000
 74
0.000000
 49
-6.350000
 74
0.000000
  0
LTYPE
  5
150
100
AcDbSymbolTableRecord
100
AcDbLinetypeTableRecord
  2
BORDER2
 70
0
  3
Border (.5x) __.__.__.__.__.__.__.__.__.__.__.
 72
65
 73
6
 40
22.225000
 49
6.350000
 74
0.000000
 49
-3.175000
 74
0.000000
 49
6.350000
 74
0.000000
 49
-3.175000
 74
0.000000
 49
0.000000
 74
0.000000
 49
-3.175000
 74
0.000000
  0
LTYPE
  5
151
100
AcDbSymbolTableRecord
100
AcDbLinetypeTableRecord
  2
BORDERX2
 70
0
  3
Border (2x) ____  ____  .  ____  ____  .  ___
 72
65
 73
6
 40
88.900000
 49
25.400000
 74
0.000000
 49
-12.700000
 74
0.000000
 49
25.400000
 74
0.000000
 49
-12.700000
 74
0.000000
 49
0.000000
 74
0.000000
 49
-12.700000
 74
0.000000
  0
ENDTAB
  0
TABLE
  2
LAYER
  5
152
100
AcDbSymbolTable
  0
LAYER
  5
153
100
AcDbSymbolTableRecord
100
AcDbLayerTableRecord
  2
0
 70
0
 62
1
  6
Continuous
390
F
  0
LAYER
  5
154
100
AcDbSymbolTableRecord
100
AcDbLayerTableRecord
  2
Dimensions
 70
0
 62
5
  6
Continuous
390
F
  0
ENDTAB
  0
TABLE
  2
STYLE
  5
155
100
AcDbSymbolTable
  0
STYLE
  5
156
100
AcDbSymbolTableRecord
100
AcDbTextStyleTableRecord
  2
Standard
  3
txt
 70
0
 71
0
 40
0.000000
 41
0.750000
 42
0.000000
 50
0.000000
  0
ENDTAB
  0
TABLE
  2
VIEW
  5
157
100
AcDbSymbolTable
 70
0
 40
249.990741
 41
28.152088
  0
ENDTAB
  0
TABLE
  2
UCS
  5
158
100
AcDbSymbolTable
 70
0
  0
ENDTAB
  0
TABLE
  2
APPID
  5
9
100
AcDbSymbolTable
 70
1
  0
APPID
  5
12
100
AcDbSymbolTableRecord
100
AcDbRegAppTableRecord
  2
ACAD
 70
0
  0
ENDTAB
  0
TABLE
  2
DIMSTYLE
  5
A
100
AcDbSymbolTable
 70
1
 71
0
  0
DIMSTYLE
105
27
100
AcDbSymbolTableRecord
100
AcDbDimStyleTableRecord
 70
0
  2
Standard
176
5
 46
0.000000
177
5
 44
1.250000
 42
0.625000
  6
ClosedFilled
  7
ClosedFilled
 41
2.500000
340
0
178
5
140
2.500000
 77
1
147
0.625000
  0
ENDTAB
  0
TABLE
  2
BLOCK_RECORD
  5
159
100
AcDbSymbolTable
 70
1
  0
BLOCK_RECORD
  5
15A
100
AcDbSymbolTableRecord
100
AcDbBlockTableRecord
  2
*Model_Space
340
22
  0
BLOCK_RECORD
  5
15B
100
AcDbSymbolTableRecord
100
AcDbBlockTableRecord
  2
*Paper_Space
340
1E
  0
BLOCK_RECORD
  5
15C
100
AcDbSymbolTableRecord
100
AcDbBlockTableRecord
  2
*Paper_Space0
340
26
  0
ENDTAB
  0
ENDSEC
  0
SECTION
  2
BLOCKS
  0
BLOCK
  5
15D
100
AcDbEntity
  8
0
100
AcDbBlockBegin
  2
*Model_Space
 70
1
 10
0.000000
 20
0.000000
  3
*Model_Space
  0
ENDBLK
  5
15E
100
AcDbEntity
  8
0
100
AcDbBlockEnd
  0
BLOCK
  5
15F
100
AcDbEntity
  8
0
100
AcDbBlockBegin
  2
*Paper_Space
 70
1
 10
0.000000
 20
0.000000
  3
*Paper_Space
  0
ENDBLK
  5
160
100
AcDbEntity
  8
0
100
AcDbBlockEnd
  0
BLOCK
  5
161
100
AcDbEntity
  8
0
100
AcDbBlockBegin
  2
*Paper_Space0
 70
1
 10
0.000000
 20
0.000000
  3
*Paper_Space0
  0
ENDBLK
  5
162
100
AcDbEntity
  8
0
100
AcDbBlockEnd
  0
ENDSEC
  0
SECTION
  2
ENTITIES
  0
LINE
  5
163
100
AcDbEntity
100
AcDbLine
  8
0
 62
256
  6
ByLayer
370
-1
 10
0.000000
 20
39.813065
 30
0.000000
 11
125.465796
 21
39.813065
 31
0.000000
  0
ARC
  5
164
100
AcDbEntity
100
AcDbCircle
  8
0
 62
256
  6
ByLayer
370
-1
 10
125.465796
 20
-35.921785
 40
75.734850
100
AcDbArc
 50
60.000000
 51
90.000000
  0
LINE
  5
165
100
AcDbEntity
100
AcDbLine
  8
0
 62
256
  6
ByLayer
370
-1
 10
163.333221
 20
29.666519
 30
0.000000
 11
180.907554
 21
19.519973
 31
0.000000
  0
ARC
  5
166
100
AcDbEntity
100
AcDbCircle
  8
0
 62
256
  6
ByLayer
370
-1
 10
193.097766
 20
40.634039
 40
24.380424
100
AcDbArc
 50
240.000000
 51
270.000000
  0
DIMENSION
  5
167
100
AcDbEntity
100
AcDbDimension
  8
Dimensions
 70
32
 62
5
  1
R39.8131
 10
-10.000000
 20
39.813065
 11
-12.000000
 21
19.906533
 53
90.000000
100
AcDbAlignedDimension
 13
0.000000
 23
0.000000
 14
0.000000
 24
39.813065
 50
90.000000
100
AcDbRotatedDimension
  0
DIMENSION
  5
168
100
AcDbEntity
100
AcDbDimension
  8
Dimensions
 70
32
 62
5
  1
R16.2536
 10
259.990741
 20
16.253616
 11
257.990741
 21
-15.000000
 53
90.000000
100
AcDbAlignedDimension
 13
193.097766
 23
0.000000
 14
193.097766
 24
16.253616
 50
90.000000
100
AcDbRotatedDimension
  0
DIMENSION
  5
169
100
AcDbEntity
100
AcDbDimension
  8
Dimensions
 70
32
 62
5
 10
0.000000
 20
-10.000000
 11
62.732898
 21
-7.000000
100
AcDbAlignedDimension
 13
0.000000
 23
0.000000
 14
125.465796
 24
0.000000
 50
0.000000
100
AcDbRotatedDimension
  0
DIMENSION
  5
16A
100
AcDbEntity
100
AcDbDimension
  8
Dimensions
 70
32
 62
5
 10
0.000000
 20
-20.000000
 11
96.548883
 21
-17.000000
100
AcDbAlignedDimension
 13
0.000000
 23
0.000000
 14
193.097766
 24
0.000000
 50
0.000000
100
AcDbRotatedDimension
  0
DIMENSION
  5
16B
100
AcDbEntity
100
AcDbDimension
  8
Dimensions
 70
32
 62
5
 10
0.000000
 20
-30.000000
 11
124.995371
 21
-27.000000
100
AcDbAlignedDimension
 13
0.000000
 23
0.000000
 14
249.990741
 24
0.000000
 50
0.000000
100
AcDbRotatedDimension
  0
DIMENSION
  5
16C
100
AcDbEntity
100
AcDbDimension
  8
Dimensions
 70
4
 62
5
  1
R75.7349
 10
125.465796
 20
-35.921785
 11
155.806891
 21
43.795255
100
AcDbRadialDimension
 15
154.448268
 25
34.048093
  0
DIMENSION
  5
16D
100
AcDbEntity
100
AcDbDimension
  8
Dimensions
 70
4
 62
5
  1
R24.3804
 10
193.097766
 20
40.634039
 11
177.855419
 21
10.302916
100
AcDbRadialDimension
 15
183.767782
 25
18.109465
  0
DIMENSION
  5
16E
100
AcDbEntity
100
AcDbDimension
  8
Dimensions
 70
2
 62
5
 10
180.907554
 20
0.000000
 11
123.520156
 21
22.249889
100
AcDb2LineAngularDimension
 13
180.907554
 23
19.519973
 14
163.333221
 24
29.666519
 15
163.333221
 25
0.000000
 16
123.520156
 26
22.249889
  0
ARC
  5
16F
100
AcDbEntity
100
AcDbCircle
  8
0
 62
256
  6
ByLayer
370
-1
 10
193.097766
 20
22.462497
 40
6.208881
100
AcDbArc
 50
270.000000
 51
285.333537
  0
SPLINE
  5
170
  8
0
100
AcDbEntity
100
AcDbSpline
 70
8
 71
2
 72
6
 73
3
 40
0
 40
0
 40
0
 40
1
 40
1
 40
1
 10
194.739627
 20
16.474635
 10
224.011591
 20
24.500957
 10
249.990741
 20
28.152088
  0
DIMENSION
  5
171
100
AcDbEntity
100
AcDbDimension
  8
Dimensions
 70
32
 62
5
  1
R28.1521
 10
269.990741
 20
0.000000
 11
267.990741
 21
14.076044
 53
90.000000
100
AcDbAlignedDimension
 13
249.990741
 23
0.000000
 14
249.990741
 24
28.152088
 50
90.000000
100
AcDbRotatedDimension
  0
DIMENSION
  5
172
100
AcDbEntity
100
AcDbDimension
  8
Dimensions
 70
5
 62
5
 10
260.990741
 20
29.682992
 11
249.990741
 21
29.682992
100
AcDb3PointAngularDimension
 15
249.990741
 25
28.152088
 13
251.090741
 23
28.152088
 14
251.080036
 24
28.305179
  0
DIMENSION
  5
173
100
AcDbEntity
100
AcDbDimension
  8
Dimensions
 70
4
 62
5
  1
R6.2089
 10
193.097766
 20
22.462497
 11
199.160962
 21
8.820998
100
AcDbRadialDimension
 15
194.335634
 25
16.378264
  0
DIMENSION
  5
174
100
AcDbEntity
100
AcDbDimension
  8
Dimensions
 70
2
 62
5
 10
194.739627
 20
16.474635
 11
241.764725
 21
26.431952
100
AcDb2LineAngularDimension
 13
194.739627
 23
0.000000
 14
210.993243
 24
0.000000
 15
210.414660
 25
20.772702
 16
241.764725
 26
26.431952
  0
LINE
  5
175
100
AcDbEntity
100
AcDbLine
  8
0
 62
3
  6
CENTER2
370
-1
 10
0.000000
 20
0.000000
 30
0.000000
 11
249.990741
 21
0.000000
 31
0.000000
  0
TEXT
  5
176
100
AcDbEntity
  8
Dimensions
 62
3
  6
ByLayer
100
AcDbText
 10
0.000000
 20
-50.000000
 40
5.000000
  1
Phoenix
 50
0.000000
100
AcDbText
  0
ENDSEC
  0
SECTION
  2
OBJECTS
  0
DICTIONARY
  5
C
100
AcDbDictionary
280
0
281
1
  3
ACAD_GROUP
350
D
  3
ACAD_LAYOUT
350
1A
  3
ACAD_MLINESTYLE
350
17
  3
ACAD_PLOTSETTINGS
350
19
  3
ACAD_PLOTSTYLENAME
350
E
  3
AcDbVariableDictionary
350
73
  0
DICTIONARY
  5
D
100
AcDbDictionary
280
0
281
1
  0
ACDBDICTIONARYWDFLT
  5
E
100
AcDbDictionary
281
1
  3
Normal
350
F
100
AcDbDictionaryWithDefault
340
F
  0
ACDBPLACEHOLDER
  5
F
100
AcDbPlaceHolder
  0
DICTIONARY
  5
17
100
AcDbDictionary
280
0
281
1
  3
Standard
350
18
  0
MLINESTYLE
  5
18
100
AcDbMlineStyle
  2
STANDARD
 70
0
  3

 62
256
 51
90.0
 52
90.0
 71
2
 49
0.5
 62
256
  6
BYLAYER
 49
-0.5
 62
256
  6
BYLAYER
  0
DICTIONARY
  5
19
100
AcDbDictionary
280
0
281
1
  0
DICTIONARY
  5
1A
100
AcDbDictionary
281
1
  3
Layout1
350
1E
  3
Layout2
350
26
  3
Model
350
22
  0
ENDSEC
  0
EOF
